<?xml version="1.0" encoding="utf-8"?>
<svg width="115" height="65" viewBox="0 0 115 65" fill="none" xmlns="http://www.w3.org/2000/svg">
<path d="M114.099 45.4345V46.1311H101.947V45.4345C102.368 45.0629 103.303 43.8089 103.303 42.4156V31.0835C103.303 29.7831 102.461 29.0864 99.9844 28.9471V28.622L102.695 26.4856H109.659C111.342 26.4856 112.744 27.2287 112.744 28.1576V42.4156C112.744 43.8089 113.678 45.0629 114.099 45.4345Z" fill="black"/>
<path d="M107.277 23.8848C109.474 23.8848 111.25 22.6772 111.25 21.2375C111.25 19.7513 109.474 18.5438 107.277 18.5438C105.081 18.5438 103.305 19.7513 103.305 21.2375C103.351 22.6772 105.127 23.8848 107.277 23.8848Z" fill="black"/>
<path d="M99.096 44.97C99.0025 44.97 98.909 44.97 98.8623 44.97C97.6939 44.9236 96.7591 43.9947 96.7124 42.8801V18.1722C96.7124 17.3363 95.357 16.6396 93.6277 16.6396H86.6639L83.9531 18.5902V18.8689C86.4302 19.0082 87.2715 19.6584 87.2715 20.866V42.6943C87.2715 44.5985 88.8605 46.1311 90.917 46.1311H97.6471C98.3949 46.1311 99.096 45.806 99.4699 45.2487L99.096 44.97Z" fill="black"/>
<path d="M83.9079 26.0676L83.5807 26.1141C77.1777 26.9036 75.8224 29.3651 74.7942 30.2011V28.1576C74.7942 27.2287 73.392 26.4856 71.7095 26.4856H64.7457L62.0349 28.622V28.9471C64.512 29.0864 65.3532 29.7831 65.3532 31.0835V42.4156C65.3532 43.2516 65.0261 43.9947 64.6522 44.5985C64.4652 44.8307 64.2315 45.1093 63.9979 45.2951C63.7642 45.4809 63.5305 45.4344 63.5772 45.4344C63.5772 45.4344 63.2033 45.388 63.0631 45.2951C62.8294 45.1093 62.5957 44.8307 62.4088 44.4591C61.8947 43.5303 57.1742 31.6408 56.6134 30.5262C55.5384 28.3898 54.2298 27.1822 51.8462 26.6249C51.0517 26.4392 49.743 26.2069 47.8268 26.2069C46.2845 26.2069 41.0966 26.2069 41.0966 26.2069L38.3391 28.3433V28.622H39.4608C45.116 28.622 46.4247 28.5291 48.2942 33.2663C36.1892 34.2416 33.2448 37.7249 32.9176 41.301C32.8709 41.719 32.9176 42.0905 33.0111 42.4621C32.8241 42.5085 32.6372 42.555 32.4035 42.6014C25.4397 43.9018 19.7377 42.8801 15.9053 39.6755C13.101 37.3069 11.512 33.7772 11.6054 30.0617C11.7457 24.3957 15.6248 18.6367 23.9908 18.6367C25.7201 18.6367 27.7298 19.2404 28.9917 19.8442C30.3471 20.4944 32.7774 22.3057 32.7774 22.3057H32.8709L37.5913 18.6367V18.5438C37.1707 18.358 34.9273 17.2434 31.422 16.4074C22.355 14.2246 13.5217 15.525 7.39909 19.9371C3.05253 23.0488 0.715669 27.2751 0.762406 31.8266C0.855881 39.5362 8.00667 47.4315 21.5605 47.6637C25.8136 47.6637 30.1601 47.0135 35.1143 45.5738C35.2545 45.5273 35.3947 45.4809 35.4882 45.4344C35.5816 45.4809 36.3294 45.806 36.3294 45.806C39.788 47.2457 44.415 47.5708 52.4538 44.3198C53.7624 45.6202 55.4917 45.9453 56.5199 46.0847C56.7069 46.1311 56.8938 46.1311 56.8938 46.1311H76.243V45.4344C75.8224 45.0629 74.8876 43.8089 74.8876 42.4156V33.0341C75.7756 31.6872 77.2712 30.619 80.87 30.619C82.4591 30.6655 83.3471 31.3621 83.5807 31.9659H84.0481V26.1141L83.9079 26.0676ZM46.2377 43.6696C43.5737 43.6696 42.1248 41.719 42.3118 39.9541C42.5455 37.632 44.6019 35.4956 47.8268 35.4956C48.6213 35.4956 48.9017 35.8671 49.1354 36.2851C49.3224 36.7496 49.5093 37.2604 50.0702 39.1182C50.7245 40.9759 50.818 41.2081 51.3788 42.4621C49.6495 43.0658 48.0137 43.6696 46.2377 43.6696Z" fill="black"/>
<path d="M94.2844 10.0447V9.90535L94.5181 8.69782V8.55849H94.3779L89.5172 7.76895L90.265 2.56731V2.38153H90.1248L88.489 2.14932L88.3488 2.10287L88.3021 2.28865L87.4141 8.83715V8.97648L87.5543 9.02292L94.0975 10.0447H94.2844Z" fill="black"/>
<path d="M98.0218 10.7878V10.602L99.2837 4.14637V3.9606H99.1435L97.5545 3.63549L97.3675 3.58905V3.72838L96.1523 10.2769V10.4162H96.2926L97.8349 10.7413L98.0218 10.7878Z" fill="black"/>
<path d="M85.4054 8.74425V8.60491L85.5456 7.44383L85.5923 7.3045H85.4054C85.4054 7.3045 84.05 7.16517 83.0685 7.07229C82.274 6.9794 80.9186 6.84007 80.4512 6.84007L80.9654 1.63843V1.45265H80.7784L79.1426 1.31332H79.0024V1.45265L78.4883 7.86182V8.00115H78.6285C78.6752 8.00115 80.9186 8.18693 82.0403 8.32626C83.162 8.41914 85.2652 8.6978 85.2652 8.6978L85.4054 8.74425Z" fill="black"/>
<path d="M60.2584 7.3974H60.3986H61.9876H62.1746V7.25807V2.05643H65.6799H65.8201V1.9171L65.8668 0.663129V0.477356H65.6799H61.1931C59.6975 0.477356 56.7063 0.570242 56.6596 0.570242H56.4727V0.756016L56.5194 1.96354V2.14931H56.7063L60.1649 2.10287L60.2116 7.35096L60.2584 7.3974Z" fill="black"/>
<path d="M57.2667 7.21162L52.8734 0.756003L52.8267 0.663116H52.7332L50.8637 0.756003H50.7702L50.7235 0.848889L47.1715 7.72249L47.0312 7.95471H47.3117L49.041 7.81538H49.1344L49.1812 7.72249L49.929 6.3292L54.369 6.09698L55.257 7.44383L55.3037 7.53672H55.3972L57.1265 7.49028H57.4069L57.2667 7.21162ZM50.7702 4.79657L51.9387 2.61373L53.3408 4.70368L50.7702 4.79657Z" fill="black"/>
<path d="M76.0102 7.86184V7.72251L76.1037 6.51498V6.32921H75.9167C75.9167 6.32921 73.7668 6.18988 71.8506 6.09699C71.1495 6.05055 70.0279 6.00411 69.6072 6.00411L69.654 4.84303C70.0746 4.84303 71.1963 4.88947 71.8973 4.93591C72.5984 4.98236 73.8136 5.0288 73.8136 5.0288H74.0005V4.84303L74.094 3.6355V3.44973H73.907C73.907 3.44973 72.4582 3.35684 71.8039 3.35684C71.1028 3.3104 70.0746 3.3104 69.654 3.26396L69.7007 2.10287C70.2148 2.10287 71.7104 2.19576 72.6451 2.2422C73.8136 2.28865 75.9167 2.42798 75.9167 2.42798H76.1037V2.28865L76.1972 1.08112V0.895349H76.0102C75.9635 0.895349 73.4397 0.709576 71.8973 0.663133C70.3083 0.570247 67.9714 0.523804 67.9247 0.523804H67.7377V0.709577L67.5508 7.30452V7.49029H67.7377C67.7377 7.49029 70.4018 7.58318 71.8506 7.62962C73.206 7.67606 75.7298 7.86184 75.7298 7.86184H76.0102Z" fill="black"/>
<path d="M26.4218 10.7878L26.562 10.7413L28.0576 10.4162L28.1978 10.3698L28.1511 10.2304L27.7772 8.09406L32.1705 7.30452L32.3107 7.25808L32.2639 7.11875L32.077 5.91122L32.0303 5.72545L31.89 5.77189L27.4967 6.56143L27.2163 5.07525L33.5726 4.00705L33.7128 3.96061L33.6661 3.82128L33.4791 2.61375L33.4324 2.42798L33.2922 2.47442C33.2454 2.47442 27.3098 3.44973 25.2066 3.91416L25.0664 3.96061L25.1131 4.09994L26.3751 10.602L26.4218 10.7878Z" fill="black"/>
<path d="M45.7716 7.81539C45.3509 7.3974 44.1825 6.14343 43.7151 5.679C44.1358 5.53967 44.4629 5.30745 44.7434 5.02879C45.0705 4.65724 45.2575 4.19281 45.2575 3.68194C45.2575 3.63549 45.2575 3.54261 45.2575 3.44972C45.2107 2.75307 44.8836 2.19575 44.3227 1.8242C43.8553 1.54554 43.2945 1.35977 42.6402 1.35977C42.5 1.35977 42.313 1.35977 42.1728 1.40622C39.2751 1.68487 36.0502 2.10286 36.0035 2.10286H35.8633L35.91 2.28864C36.097 3.44972 36.2372 4.65724 36.3774 5.77188C36.5176 6.79363 36.6578 7.81539 36.798 8.83714V8.97647H36.9382L38.4806 8.74425H38.6208V8.60492L38.2936 6.46853L41.5652 6.09699L43.7151 8.23338L43.7619 8.27982H43.8553L45.6781 8.09405L46.0053 8.0476L45.7716 7.81539ZM42.2195 4.47147L38.1067 4.9359L37.9197 3.44972L41.9391 2.98529C42.0326 2.98529 42.1728 2.98529 42.2663 2.98529H42.313C42.9206 2.98529 43.2478 3.2175 43.2478 3.68194C43.2478 4.00704 43.1543 4.42503 42.2195 4.47147Z" fill="black"/>
<path d="M100.078 62.3862H99.985H91.0114H90.918V62.2934V61.1323V60.9929H91.0114H99.985H100.078V61.1323V62.2934V62.3862Z" fill="black"/>
<path d="M30.5824 62.3862H30.4889H21.5153H21.4219V62.2934V61.1323V60.9929H21.5153H30.4889H30.5824V61.1323V62.2934V62.3862Z" fill="black"/>
<path d="M81.1961 64.1511H79.8875V60.0641L78.906 60.3892L78.8125 60.4356V59.5532H78.8592C79.2799 59.4603 79.607 59.321 79.8875 59.0888H81.1494V64.1511H81.1961Z" fill="black"/>
<path d="M86.618 64.1511H85.3093V60.0641L84.3278 60.3892L84.2344 60.4356V59.5532H84.2811C84.7017 59.4603 85.0289 59.321 85.3093 59.0888H86.5712L86.618 64.1511Z" fill="black"/>
<path d="M58.4334 64.1975V63.1758H54.227V59.0423H53.0586V64.1975H58.4334Z" fill="black"/>
<path d="M40.8145 59.739C40.2537 59.2745 39.4592 59.0423 38.4777 59.0423H34.8789V64.1975H38.6179C39.4592 64.1975 40.1602 63.9653 40.7211 63.5473C41.3287 63.0364 41.6558 62.4327 41.6558 61.6896C41.7025 60.8536 41.3754 60.2499 40.8145 59.739ZM39.9733 62.7578C39.6461 63.0364 39.2255 63.1758 38.7114 63.1758H36.0473V60.0176H38.5244C39.0853 60.0176 39.5526 60.157 39.9265 60.4821C40.2537 60.7607 40.4406 61.1787 40.4406 61.6432C40.4406 62.1076 40.3004 62.4791 39.9733 62.7578Z" fill="black"/>
<path d="M47.8261 59.0423H46.5174L43.1523 64.1975H44.5077L45.2555 63.0829H49.0412L49.789 64.1975H51.1444L47.8261 59.0423ZM45.9098 62.1076L47.1718 60.0641L48.4337 62.1076H45.9098Z" fill="black"/>
<path d="M72.2711 64.1975C71.0559 64.1975 70.0277 63.9189 69.2331 63.3616L69.1864 63.3151H69.2331L69.9809 62.8042C70.495 63.2222 71.1961 63.408 72.1776 63.408C72.5515 63.408 72.9254 63.3616 73.2993 63.2687C73.7666 63.1293 74.0938 62.9436 74.3742 62.6185C74.6547 62.3398 74.7949 62.0147 74.7949 61.6432C74.7949 61.5967 74.7949 61.5503 74.7949 61.5038L74.7481 61.4109L74.6547 61.4574C73.9536 61.9683 73.0656 62.2469 71.8972 62.2469C70.9624 62.2469 70.2146 62.1076 69.6538 61.8289C69.0929 61.5503 68.8125 61.1787 68.8125 60.7143C68.8125 60.2034 69.0929 59.7854 69.7005 59.5068C70.2614 59.2281 71.0559 59.0423 72.0841 59.0423C73.2525 59.0423 74.1873 59.2745 74.9351 59.739C75.6361 60.2034 76.01 60.8536 76.01 61.6432C76.01 62.3862 75.6361 62.99 74.8883 63.5009C74.1873 63.9653 73.2993 64.1975 72.2711 64.1975ZM72.0374 59.8319C71.4298 59.8319 70.9157 59.9247 70.5885 60.0641C70.2614 60.2034 70.0744 60.4356 70.0744 60.6678C70.0744 60.9465 70.2614 61.1323 70.5885 61.3181C70.9157 61.4574 71.383 61.5503 72.0374 61.5503C73.0656 61.5503 73.9069 61.2716 74.4677 60.6678L74.5144 60.6214L74.4677 60.575C74.0003 60.0641 73.1591 59.8319 72.0374 59.8319Z" fill="black"/>
<path d="M65.6336 64.1511H64.325V60.0641L63.3435 60.3892L63.25 60.4356V59.5532H63.2967C63.7174 59.4603 64.0445 59.321 64.325 59.0888H65.5869L65.6336 64.1511Z" fill="black"/>
</svg>
