<svg width="56" height="61" viewBox="0 0 56 61" fill="none" xmlns="http://www.w3.org/2000/svg">
<path fill-rule="evenodd" clip-rule="evenodd" d="M9.53797 2.29138C10.0962 2.13614 10.6735 2.46648 10.8275 3.02921C11.3171 4.81841 11.4689 6.63167 11.5424 8.38552C11.5672 8.97804 11.5832 9.55553 11.5988 10.1242C11.6307 11.2785 11.6615 12.3962 11.7637 13.5289C11.8161 14.1102 11.3911 14.6244 10.8145 14.6772C10.2378 14.7301 9.72781 14.3016 9.67539 13.7203C9.56735 12.5222 9.53305 11.2892 9.49989 10.0971C9.48453 9.54498 9.46942 9.00169 9.44734 8.47473C9.37585 6.76833 9.23155 5.14623 8.80608 3.59137C8.6521 3.02864 8.97978 2.44661 9.53797 2.29138Z" fill="black"/>
<path fill-rule="evenodd" clip-rule="evenodd" d="M2.76732 2.82736C2.75371 2.24873 3.21174 1.76863 3.79037 1.75502L15.5509 1.4784C16.1295 1.46479 16.6096 1.92282 16.6232 2.50145C16.6369 3.08007 16.1788 3.56017 15.6002 3.57378L3.83965 3.8504C3.26103 3.86401 2.78093 3.40598 2.76732 2.82736Z" fill="black"/>
<path fill-rule="evenodd" clip-rule="evenodd" d="M20.4023 0.987119C20.9348 1.09971 21.2821 1.65751 21.1779 2.23299C21.0082 3.17004 20.8708 4.11171 20.7301 5.0756C20.7178 5.15997 20.7055 5.2445 20.6931 5.32922C20.5403 6.3741 20.3806 7.44323 20.1724 8.51182C19.9843 9.47761 19.7608 10.3308 19.5505 11.1338C19.5221 11.2419 19.494 11.3492 19.4663 11.4556C19.2307 12.3602 19.0162 13.2264 18.8625 14.2227C18.7733 14.8011 18.2671 15.1918 17.7318 15.0954C17.1966 14.999 16.835 14.452 16.9242 13.8735C17.0963 12.7572 17.3355 11.7987 17.5747 10.8803C17.6033 10.7706 17.6318 10.6617 17.6602 10.5533C17.8714 9.74629 18.076 8.96454 18.2495 8.07436C18.4462 7.06465 18.5991 6.04417 18.7521 4.99783C18.7646 4.91181 18.7772 4.82557 18.7898 4.73916C18.9294 3.78228 19.0724 2.80266 19.2493 1.82525C19.3535 1.24977 19.8697 0.874526 20.4023 0.987119Z" fill="black"/>
<path fill-rule="evenodd" clip-rule="evenodd" d="M20.2953 0.988154C20.8446 0.874106 21.3804 1.23622 21.4921 1.79696C21.6123 2.39992 21.9071 2.92512 22.305 3.63386C22.3434 3.7022 22.3827 3.77224 22.4229 3.84422C23.4742 5.72602 24.5734 7.54136 25.8091 9.26784C26.3056 9.96148 26.6045 10.6528 26.8553 11.2332C26.8746 11.2779 26.8937 11.3219 26.9125 11.3652C27.1825 11.9868 27.4182 12.4916 27.8186 12.982C28.1774 13.4216 28.1193 14.075 27.6886 14.4413C27.258 14.8076 26.618 14.7482 26.2592 14.3086C25.6633 13.5786 25.333 12.8411 25.0568 12.2051C25.0423 12.1715 25.0278 12.1383 25.0136 12.1054C24.7506 11.499 24.5331 10.9974 24.1702 10.4904C22.874 8.67945 21.733 6.79221 20.6596 4.8708C20.619 4.79817 20.5766 4.72329 20.533 4.64623C20.1586 3.98507 19.6928 3.16249 19.503 2.20996C19.3913 1.64922 19.746 1.1022 20.2953 0.988154Z" fill="black"/>
<path fill-rule="evenodd" clip-rule="evenodd" d="M25.4808 9.16485C25.5125 9.69567 25.0502 10.1486 24.4483 10.1766C23.5084 10.2202 22.7588 10.3477 21.9458 10.4859C21.9087 10.4923 21.8713 10.4986 21.8339 10.505C20.978 10.6503 20.054 10.8008 18.8841 10.8241C18.2815 10.8361 17.782 10.415 17.7684 9.88362C17.7547 9.35219 18.2322 8.91165 18.8348 8.89964C19.8101 8.88021 20.5824 8.75714 21.4213 8.61472C21.4662 8.6071 21.5113 8.59942 21.5567 8.59169C22.3584 8.45514 23.2396 8.30506 24.3336 8.25428C24.9355 8.22635 25.4491 8.63402 25.4808 9.16485Z" fill="black"/>
<path fill-rule="evenodd" clip-rule="evenodd" d="M29.2199 0.581549C29.7648 0.418958 30.337 0.733263 30.4979 1.28357C30.831 2.42202 31.0631 3.57684 31.2713 4.69947C31.3199 4.96151 31.3671 5.22078 31.4138 5.47781C31.5701 6.3369 31.7217 7.171 31.9083 8.00011C32.2303 9.43127 32.4349 10.2936 32.6749 11.3054C32.8167 11.9034 32.9709 12.5536 33.1691 13.4044C33.2993 13.9629 32.9564 14.5223 32.4034 14.6537C31.8503 14.7851 31.2965 14.4389 31.1664 13.8803C30.9723 13.047 30.8192 12.4016 30.6775 11.8042C30.4353 10.7827 30.2263 9.9014 29.9021 8.46064C29.705 7.58486 29.5428 6.69294 29.3852 5.826C29.3397 5.57564 29.2946 5.32736 29.2491 5.08215C29.0433 3.9726 28.8267 2.90416 28.5248 1.87236C28.3639 1.32205 28.6751 0.744138 29.2199 0.581549Z" fill="black"/>
<path fill-rule="evenodd" clip-rule="evenodd" d="M30.5034 2.56249C30.1754 2.56357 29.8454 2.56467 29.5121 2.56467C28.9434 2.56467 28.4824 2.11211 28.4824 1.55384C28.4824 0.99557 28.9434 0.543004 29.5121 0.543004C29.8302 0.543004 30.1518 0.541941 30.4753 0.540871C31.232 0.538368 31.9997 0.535829 32.7614 0.546766C33.5354 0.557881 34.5624 0.589968 35.4875 0.961857C36.1703 1.23632 36.8127 1.76691 37.2557 2.37115C37.6859 2.95782 38.0631 3.80683 37.8494 4.70064C37.6774 5.41991 37.1168 5.86344 36.7473 6.11097C36.5439 6.24722 36.3339 6.36503 36.1592 6.46093C36.1165 6.48439 36.0766 6.50613 36.0392 6.52655C35.91 6.59703 35.8097 6.65182 35.7187 6.707C35.0566 7.1089 34.3758 7.44482 33.7143 7.76095C33.5333 7.8474 33.3206 7.92102 33.1524 7.97766C33.093 7.99767 33.0366 8.01638 32.9821 8.03446C32.8602 8.0749 32.7478 8.11217 32.6327 8.1537C32.4704 8.21222 32.3583 8.26002 32.2878 8.29809C31.9786 8.68246 31.4218 8.79906 30.9739 8.55062C30.4788 8.27601 30.3042 7.65936 30.5839 7.17331C30.7824 6.82841 31.102 6.63216 31.2839 6.5329C31.4951 6.41765 31.7269 6.32661 31.9225 6.25605C32.0645 6.20484 32.218 6.1539 32.3498 6.11017C32.3981 6.09415 32.4435 6.0791 32.4843 6.06536C32.6606 6.00598 32.7606 5.96823 32.813 5.94317C33.4655 5.63137 34.0674 5.33245 34.6358 4.98745C34.7718 4.90492 34.9277 4.81993 35.0627 4.74637C35.0946 4.72899 35.1253 4.71225 35.1543 4.69633C35.3215 4.60456 35.4637 4.52335 35.5867 4.44099C35.7796 4.31174 35.836 4.23711 35.8478 4.22148C35.8615 4.12447 35.8312 3.88877 35.5844 3.55222C35.3344 3.21123 34.9851 2.94447 34.7072 2.83276C34.1859 2.62322 33.5255 2.57962 32.7313 2.56822C31.9888 2.55755 31.2514 2.56 30.5034 2.56249ZM32.2431 8.32531C32.2428 8.32524 32.2462 8.32251 32.2544 8.31734C32.2475 8.3228 32.2434 8.32538 32.2431 8.32531Z" fill="black"/>
<path fill-rule="evenodd" clip-rule="evenodd" d="M3.05019 21.9701C3.62402 21.8945 4.15049 22.2984 4.2261 22.8722C4.39197 24.1309 4.62377 25.3818 4.86191 26.6668C4.96477 27.2218 5.0688 27.7832 5.16922 28.3544C5.49699 30.2187 5.77683 32.1435 5.78575 34.0832C5.78841 34.6619 5.32137 35.1333 4.7426 35.136C4.16382 35.1386 3.69247 34.6716 3.68981 34.0928C3.68173 32.3358 3.42757 30.5525 3.10491 28.7173C3.01191 28.1883 2.91233 27.6508 2.81184 27.1084C2.56928 25.7992 2.32145 24.4615 2.1481 23.146C2.07249 22.5722 2.47637 22.0457 3.05019 21.9701Z" fill="black"/>
<path fill-rule="evenodd" clip-rule="evenodd" d="M9.70355 30.4495C9.20095 30.2841 8.77272 30.3004 7.99859 30.3624C6.95542 30.4459 5.87651 30.3651 4.90177 30.2921C4.60747 30.27 4.32266 30.2487 4.0512 30.2328C3.47341 30.199 3.03242 29.7032 3.06623 29.1254C3.10003 28.5476 3.59584 28.1066 4.17363 28.1404C4.52149 28.1608 4.85498 28.1856 5.17826 28.2096C6.1145 28.2792 6.96516 28.3425 7.83125 28.2731C8.59479 28.2119 9.41121 28.1468 10.3587 28.4586C10.9085 28.6395 11.2075 29.2318 11.0266 29.7816C10.8457 30.3314 10.2533 30.6304 9.70355 30.4495Z" fill="black"/>
<path fill-rule="evenodd" clip-rule="evenodd" d="M9.59008 21.6311C10.1601 21.5308 10.7035 21.9117 10.8037 22.4817C11.2714 25.1411 11.8643 27.7196 12.6816 30.2928C12.7589 30.536 12.8448 30.7899 12.9338 31.0528C13.2729 32.0547 13.6561 33.187 13.7705 34.3535C13.8269 34.9295 13.4058 35.4422 12.8298 35.4987C12.2537 35.5552 11.741 35.134 11.6845 34.558C11.5959 33.6541 11.3161 32.8232 10.9915 31.859C10.8918 31.563 10.7879 31.2544 10.684 30.9273C9.83259 28.2467 9.21955 25.5746 8.73946 22.8447C8.63921 22.2747 9.02005 21.7313 9.59008 21.6311Z" fill="black"/>
<path fill-rule="evenodd" clip-rule="evenodd" d="M14.9458 21.6933C15.5166 21.5978 16.0568 21.9831 16.1524 22.554C16.4769 24.493 16.7013 26.4245 16.9236 28.338C16.9783 28.8087 17.0329 29.2783 17.0888 29.7467C17.1088 29.9145 17.1295 30.0839 17.1503 30.2548C17.2435 31.0187 17.34 31.8103 17.3979 32.6046C17.401 32.6469 17.4022 32.6876 17.4026 32.7202C17.5021 32.7372 17.6144 32.7534 17.737 32.7685C17.9768 32.7979 18.2263 32.8196 18.4491 32.8369C18.5074 32.8415 18.5675 32.846 18.6264 32.8504C18.7719 32.8613 18.9106 32.8716 18.9984 32.881C20.1867 33.0081 21.3465 32.8778 22.5036 32.5395C23.0591 32.3771 23.6411 32.6958 23.8035 33.2513C23.9659 33.8068 23.6473 34.3888 23.0917 34.5512C21.7051 34.9566 20.2689 35.1248 18.7756 34.9651C18.7219 34.9594 18.6403 34.9533 18.5222 34.9445C18.4556 34.9395 18.3774 34.9337 18.2861 34.9266C18.0533 34.9084 17.7676 34.8839 17.4816 34.8488C17.202 34.8145 16.8901 34.7663 16.6142 34.6943C16.4768 34.6584 16.3198 34.6094 16.1685 34.5396C16.0367 34.4788 15.8031 34.3552 15.6185 34.1197C15.433 33.883 15.3733 33.627 15.3496 33.5052C15.3213 33.3592 15.3122 33.2189 15.3086 33.1162C15.3049 33.0125 15.3058 32.9128 15.3065 32.8458L15.3065 32.8415C15.3072 32.7723 15.3069 32.752 15.3071 32.752C15.3072 32.752 15.3073 32.754 15.3075 32.7571C15.2536 32.0184 15.1647 31.2886 15.072 30.5277C15.0506 30.352 15.029 30.1746 15.0076 29.995C14.95 29.5122 14.8942 29.0329 14.8388 28.5562C14.617 26.6479 14.4001 24.782 14.0852 22.8999C13.9896 22.329 14.3749 21.7888 14.9458 21.6933Z" fill="black"/>
<path fill-rule="evenodd" clip-rule="evenodd" d="M21.39 27.7234C21.6362 28.2472 21.411 28.8714 20.8872 29.1176C20.0488 29.5115 19.0182 29.5786 18.1452 29.563C17.3655 29.5491 16.5763 29.4632 15.9662 29.3967C15.8739 29.3867 15.7857 29.3771 15.7022 29.3683C15.1267 29.3073 14.7095 28.7913 14.7704 28.2157C14.8314 27.6402 15.3474 27.223 15.923 27.2839C16.0146 27.2937 16.1083 27.3038 16.2035 27.3141C16.8198 27.3809 17.5057 27.4553 18.1827 27.4674C18.9889 27.4818 19.613 27.4005 19.9958 27.2206C20.5197 26.9744 21.1439 27.1995 21.39 27.7234Z" fill="black"/>
<path fill-rule="evenodd" clip-rule="evenodd" d="M23.3368 22.3988C23.3644 22.977 22.9181 23.468 22.3399 23.4956C19.8727 23.6132 17.4985 23.504 15.0614 23.2235C14.4865 23.1573 14.074 22.6375 14.1402 22.0625C14.2064 21.4875 14.7262 21.0751 15.3011 21.1413C17.6428 21.4108 19.9024 21.5135 22.2401 21.402C22.8182 21.3744 23.3092 21.8207 23.3368 22.3988Z" fill="black"/>
<path fill-rule="evenodd" clip-rule="evenodd" d="M25.2652 21.1459C25.814 20.9623 26.4079 21.2583 26.5916 21.8072C27.1607 23.5079 27.5037 25.7105 27.7884 27.8691C27.8652 28.4512 27.9378 29.0302 28.0092 29.6C28.2084 31.1895 28.3987 32.7073 28.6459 34.0191C28.753 34.5878 28.3789 35.1358 27.8101 35.243C27.2413 35.3502 26.6933 34.976 26.5862 34.4072C26.326 33.0265 26.1236 31.4115 25.9218 29.8009C25.8521 29.2445 25.7824 28.6887 25.7105 28.1432C25.424 25.9713 25.1008 23.9571 24.6039 22.4723C24.4203 21.9235 24.7163 21.3296 25.2652 21.1459Z" fill="black"/>
<path fill-rule="evenodd" clip-rule="evenodd" d="M26.8627 23.1817C26.3889 23.2101 25.8862 23.2277 25.478 23.1807C24.903 23.1145 24.4905 22.5947 24.5567 22.0197C24.6229 21.4447 25.1427 21.0323 25.7177 21.0984C25.9242 21.1222 26.2614 21.118 26.7373 21.0895C27.0018 21.0736 27.2561 21.0544 27.5246 21.034C27.755 21.0166 27.996 20.9983 28.2628 20.9808C28.7978 20.9456 29.3654 20.9191 29.8844 20.9377C30.3777 20.9554 30.9467 21.0158 31.4215 21.2247C31.8727 21.4233 32.4522 21.687 32.8668 22.198C33.3146 22.7498 33.4543 23.4267 33.4611 24.1877C33.4697 25.1601 33.0046 25.8798 32.3746 26.3556C31.7895 26.7976 31.0659 27.0327 30.4408 27.1729C29.801 27.3165 29.158 27.3825 28.6799 27.4269C28.616 27.4328 28.5564 27.4382 28.5006 27.4433C28.3362 27.4583 28.2047 27.4702 28.0939 27.4833C28.037 27.4899 27.9985 27.4955 27.974 27.4996C27.4717 27.6788 26.906 27.4503 26.6745 26.9577C26.4284 26.4339 26.6535 25.8097 27.1773 25.5636C27.3306 25.4916 27.4816 25.4598 27.5599 25.4447C27.6556 25.4262 27.7565 25.4125 27.8496 25.4016C27.9902 25.3851 28.1609 25.3696 28.3335 25.3539C28.3845 25.3492 28.4357 25.3446 28.4863 25.3399C28.956 25.2963 29.4835 25.2396 29.982 25.1278C30.4952 25.0126 30.8776 24.8597 31.1114 24.6831C31.3003 24.5404 31.367 24.4112 31.3652 24.2062C31.3604 23.6697 31.2614 23.546 31.2393 23.5187C31.184 23.4505 31.0624 23.3566 30.5773 23.1432C30.4814 23.1009 30.2435 23.0479 29.8092 23.0323C29.4005 23.0177 28.9195 23.038 28.4005 23.0722C28.1898 23.0861 27.9542 23.1037 27.7173 23.1215C27.4188 23.1439 27.1182 23.1664 26.8627 23.1817ZM27.9449 27.5053C27.9448 27.5052 27.9476 27.5045 27.9539 27.5033C27.9482 27.5047 27.9451 27.5054 27.9449 27.5053Z" fill="black"/>
<path fill-rule="evenodd" clip-rule="evenodd" d="M27.7872 26.7513C28.1505 26.3008 28.8103 26.23 29.2608 26.5933C30.9871 27.9853 32.4679 29.4328 33.9497 30.8813C34.6268 31.5433 35.3041 32.2054 36.0052 32.8625C36.4275 33.2583 36.4489 33.9215 36.0531 34.3438C35.6573 34.7661 34.9941 34.7875 34.5718 34.3917C33.8018 33.6699 33.0906 32.9744 32.3979 32.2969C30.9557 30.8863 29.5933 29.5539 27.9452 28.225C27.4946 27.8617 27.4239 27.2019 27.7872 26.7513Z" fill="black"/>
<path fill-rule="evenodd" clip-rule="evenodd" d="M38.1472 21.875C38.7197 21.7904 39.2525 22.1859 39.3371 22.7585C39.5883 24.4578 39.8931 26.1532 40.2063 27.8636C40.242 28.0581 40.2777 28.2528 40.3135 28.4478C40.5434 29.7009 40.7751 30.9631 40.9879 32.23C41.4593 32.1831 42.0851 32.0854 42.7515 31.9666C43.456 31.841 44.178 31.6968 44.762 31.5775C44.9207 31.545 45.0732 31.5136 45.2141 31.4846C45.5689 31.4114 45.8493 31.3536 45.9655 31.3344C46.5366 31.2402 47.0759 31.6268 47.17 32.1979C47.2642 32.769 46.8776 33.3083 46.3065 33.4024C46.2336 33.4145 46.0328 33.4559 45.7261 33.5191C45.5708 33.5511 45.3883 33.5888 45.1816 33.631C44.5922 33.7514 43.85 33.8997 43.1195 34.03C42.3961 34.159 41.6556 34.2756 41.0788 34.3266C40.7994 34.3513 40.5047 34.3659 40.2535 34.3441C40.1365 34.3339 39.9502 34.3102 39.7605 34.2322C39.5975 34.1652 39.1416 33.931 39.0491 33.356C38.8063 31.8472 38.5304 30.3433 38.252 28.8263C38.2162 28.6315 38.1804 28.4365 38.1447 28.2412C37.8313 26.5304 37.5206 24.8034 37.2637 23.065C37.179 22.4924 37.5746 21.9596 38.1472 21.875ZM40.4227 32.2546C40.4229 32.2545 40.4257 32.2548 40.431 32.2556C40.4253 32.2551 40.4226 32.2546 40.4227 32.2546Z" fill="black"/>
<path fill-rule="evenodd" clip-rule="evenodd" d="M44.0418 26.0535C44.2879 26.5774 44.0628 27.2015 43.539 27.4477C43.1206 27.6443 42.6476 27.688 42.333 27.7077C42.1368 27.72 41.9963 27.7244 41.876 27.7282C41.7353 27.7326 41.6223 27.7361 41.4803 27.7504C40.7196 27.827 40.201 28.0206 39.3841 28.3688C38.8516 28.5957 38.236 28.348 38.0091 27.8156C37.7822 27.2832 38.0298 26.6676 38.5623 26.4406C39.4257 26.0726 40.1831 25.7744 41.2704 25.665C41.4398 25.6479 41.6153 25.6404 41.7668 25.6347C41.7983 25.6335 41.8289 25.6324 41.8587 25.6313C41.9819 25.6268 42.0919 25.6228 42.2019 25.6159C42.3362 25.6075 42.4425 25.5962 42.5269 25.581C42.5679 25.5737 42.5982 25.5664 42.6198 25.5601C42.6394 25.5543 42.6479 25.5506 42.6479 25.5506C42.6479 25.5506 42.6478 25.5506 42.6476 25.5507C43.1715 25.3046 43.7957 25.5297 44.0418 26.0535Z" fill="black"/>
<path fill-rule="evenodd" clip-rule="evenodd" d="M43.3604 20.7721C43.8352 21.1032 43.9517 21.7564 43.6206 22.2312C43.3787 22.578 43.0328 22.7422 42.8188 22.823C42.5839 22.9116 42.3392 22.9609 42.1388 22.9919C41.9327 23.0239 41.7292 23.0429 41.5681 23.0568C41.5278 23.0603 41.4917 23.0634 41.4591 23.0661C41.3439 23.0759 41.2725 23.082 41.219 23.0893C40.3776 23.2047 39.5042 23.2432 38.6876 23.2791C38.3443 23.2942 38.0109 23.3089 37.6943 23.3287C37.1166 23.3648 36.6191 22.9257 36.583 22.348C36.547 21.7704 36.986 21.2729 37.5637 21.2368C37.9648 21.2118 38.344 21.1952 38.7105 21.1792C39.4786 21.1458 40.1911 21.1147 40.9342 21.0128C41.0474 20.9973 41.1921 20.9851 41.3138 20.9749C41.3396 20.9727 41.3644 20.9707 41.3877 20.9687C41.5414 20.9554 41.6858 20.9412 41.8177 20.9207C41.9165 20.9054 41.9873 20.8896 42.0343 20.8763C42.3874 20.5359 42.9429 20.4809 43.3604 20.7721ZM42.0952 20.8549C42.0954 20.855 42.092 20.8568 42.0841 20.8599C42.091 20.8563 42.0949 20.8548 42.0952 20.8549Z" fill="black"/>
<path fill-rule="evenodd" clip-rule="evenodd" d="M0.70747 54.7667C0.933102 54.2216 1.55219 53.9651 2.09024 54.1937C5.13891 55.4888 8.2293 56.6902 11.3339 57.8971C11.8239 58.0876 12.3141 58.2782 12.8047 58.4693C13.3492 58.6815 13.6209 59.3007 13.4114 59.8524C13.202 60.404 12.5908 60.6792 12.0462 60.4671C11.5584 60.277 11.0697 60.087 10.5806 59.8969C7.47791 58.6907 4.35415 57.4764 1.27315 56.1675C0.735099 55.9389 0.481837 55.3118 0.70747 54.7667Z" fill="black"/>
<path fill-rule="evenodd" clip-rule="evenodd" d="M28.9719 47.2625C29.5523 47.1854 30.0866 47.5835 30.1653 48.1517C30.2992 49.1183 30.4959 50.0991 30.7011 51.1228C30.7859 51.5455 30.8721 51.9755 30.956 52.4149C31.2366 53.8848 31.4823 55.4228 31.4823 56.9291C31.4823 57.5024 31.0075 57.9672 30.4217 57.9672C29.836 57.9672 29.3612 57.5024 29.3612 56.9291C29.3612 55.6242 29.1471 54.2427 28.871 52.7963C28.7953 52.3997 28.7141 51.9947 28.6321 51.5856C28.4219 50.5372 28.2063 49.4617 28.0635 48.4306C27.9848 47.8625 28.3915 47.3395 28.9719 47.2625Z" fill="black"/>
<path fill-rule="evenodd" clip-rule="evenodd" d="M54.7654 49.0264C55.3232 49.2181 55.6168 49.8167 55.4212 50.3634C54.3652 53.3153 52.9755 55.9602 50.9592 58.4304C50.59 58.8828 49.9165 58.9562 49.4549 58.5943C48.9934 58.2324 48.9185 57.5722 49.2878 57.1198C51.1283 54.8648 52.4108 52.438 53.4013 49.6692C53.5969 49.1225 54.2076 48.8347 54.7654 49.0264Z" fill="black"/>
</svg>
