<svg width="125" height="194" viewBox="0 0 125 194" fill="none" xmlns="http://www.w3.org/2000/svg">
<path fill-rule="evenodd" clip-rule="evenodd" d="M12.2524 187.749C11.6782 186.958 11.9491 185.908 12.8574 185.402C16.9177 183.14 20.987 180.96 25.0214 178.8C45.3266 167.925 64.7498 157.523 77.7007 139.438C88.0296 125.014 94.7586 104.697 87.1475 88.7427C79.7287 91.8496 71.4244 92.5827 62.4321 91.2668C58.1857 90.6454 52.5022 89.4714 47.6301 87.2517C42.7752 85.0399 38.3766 81.6185 37.4491 76.3934C36.6484 71.8832 40.3544 68.952 44.0982 67.3116C47.9078 65.6425 52.5521 64.8979 55.5437 64.8955C69.5039 64.884 82.3923 73.7186 88.872 84.0343C91.5421 82.552 94.0664 80.687 96.4419 78.4196C107.065 68.2797 112.146 55.8889 114.486 42.673C116.727 30.01 116.434 16.7185 116.155 4.04027C116.142 3.45627 116.129 2.87359 116.117 2.29232C116.096 1.35434 116.951 0.575132 118.025 0.551914C119.1 0.528696 119.987 1.27026 120.007 2.20824C120.021 2.8181 120.034 3.43042 120.048 4.045C120.326 16.6494 120.626 30.2096 118.331 43.1727C115.919 56.7983 110.622 69.9046 99.3062 80.7049C96.5809 83.3062 93.6684 85.4283 90.5848 87.0975C90.6367 87.2031 90.6878 87.3088 90.7383 87.4146C99.0639 104.858 91.6076 126.41 80.9969 141.227C67.5125 160.057 47.1639 170.94 26.8386 181.81C22.8531 183.942 18.8685 186.073 14.9368 188.263C14.0285 188.769 12.8266 188.539 12.2524 187.749ZM85.4638 85.6872C79.5092 76.1814 67.721 68.2832 55.5244 68.2933C53.0736 68.2953 49.0376 68.9401 45.8272 70.3467C42.5509 71.7822 40.897 73.6133 41.2947 75.8536C41.9503 79.5465 45.083 82.2496 49.4462 84.2374C53.7922 86.2173 59.0136 87.3181 63.0973 87.9157C71.3448 89.1226 78.8143 88.4682 85.4638 85.6872Z" fill="black"/>
<path fill-rule="evenodd" clip-rule="evenodd" d="M11.7924 189.287C12.2947 189.233 12.787 189.18 13.0388 189.17C15.1496 189.092 17.2745 189.053 19.3743 189.015C20.2494 188.999 21.1201 188.983 21.9836 188.964C23.058 188.941 23.9454 189.683 23.9657 190.621C23.9859 191.559 23.1314 192.338 22.057 192.361C21.161 192.381 20.2719 192.397 19.3871 192.413C17.3057 192.451 15.248 192.489 13.181 192.565C13.1824 192.565 13.1821 192.565 13.1799 192.565C13.1722 192.566 13.1409 192.568 13.0751 192.574C12.9987 192.58 12.9006 192.59 12.7784 192.603C12.6403 192.617 12.4916 192.633 12.3251 192.651C12.1855 192.666 12.0334 192.682 11.8647 192.7C11.1535 192.775 10.2551 192.865 9.37189 192.92C8.51607 192.973 7.56047 193.003 6.77385 192.926C6.40082 192.889 5.89223 192.814 5.42117 192.614C4.94634 192.413 4.07936 191.874 4.05671 190.825C4.02986 189.583 4.42166 188.431 4.89092 187.446C5.2972 186.594 5.81122 185.771 6.24217 185.082C6.3034 184.984 6.36295 184.888 6.42028 184.796C6.95727 183.931 7.37798 183.027 7.79717 182.047C7.90491 181.796 8.01442 181.534 8.12661 181.266C8.43647 180.526 8.76671 179.738 9.13629 178.972C9.55413 178.105 10.6954 177.694 11.6855 178.054C12.6755 178.414 13.1394 179.408 12.7215 180.274C12.391 180.96 12.1095 181.632 11.8109 182.345C11.6919 182.629 11.5701 182.92 11.4414 183.22C11.0038 184.243 10.5076 185.325 9.83876 186.402C9.77533 186.504 9.71238 186.605 9.65008 186.705C9.21092 187.409 8.80368 188.062 8.48249 188.736C8.34272 189.029 8.22916 189.307 8.14316 189.572C8.43319 189.567 8.76039 189.553 9.11685 189.531C9.90116 189.482 10.7221 189.4 11.4202 189.327C11.5425 189.314 11.6678 189.3 11.7924 189.287Z" fill="black"/>
</svg>
