<svg width="376" height="89" viewBox="0 0 376 89" fill="none" xmlns="http://www.w3.org/2000/svg">
<circle cx="8" cy="8.45679" r="8" fill="#A8B1FF"/>
<circle cx="8" cy="32.4568" r="8" fill="#FFDCA8"/>
<circle cx="32" cy="8.45679" r="8" fill="#FFDCA8"/>
<circle cx="32" cy="32.4568" r="8" fill="#A8B1FF"/>
<circle cx="56" cy="8.45679" r="8" fill="#A8B1FF"/>
<circle cx="56" cy="32.4568" r="8" fill="#FFDCA8"/>
<circle cx="80" cy="8.45679" r="8" fill="#FFDCA8"/>
<circle cx="80" cy="32.4568" r="8" fill="#A8B1FF"/>
<circle cx="200" cy="8.45679" r="8" fill="#A8B1FF"/>
<circle cx="200" cy="32.4568" r="8" fill="#FFDCA8"/>
<circle cx="224" cy="8.45679" r="8" fill="#FFDCA8"/>
<circle cx="224" cy="32.4568" r="8" fill="#A8B1FF"/>
<circle cx="248" cy="8.45679" r="8" fill="#A8B1FF"/>
<circle cx="248" cy="32.4568" r="8" fill="#FFDCA8"/>
<circle cx="272" cy="8.45679" r="8" fill="#FFDCA8"/>
<circle cx="272" cy="32.4568" r="8" fill="#A8B1FF"/>
<circle cx="104" cy="8.45679" r="8" fill="#A8B1FF"/>
<circle cx="104" cy="32.4568" r="8" fill="#FFDCA8"/>
<circle cx="128" cy="8.45679" r="8" fill="#FFDCA8"/>
<circle cx="128" cy="32.4568" r="8" fill="#A8B1FF"/>
<circle cx="152" cy="8.45679" r="8" fill="#A8B1FF"/>
<circle cx="152" cy="32.4568" r="8" fill="#FFDCA8"/>
<circle cx="176" cy="8.45679" r="8" fill="#FFDCA8"/>
<circle cx="176" cy="32.4568" r="8" fill="#A8B1FF"/>
<circle cx="296" cy="8.45679" r="8" fill="#A8B1FF"/>
<circle cx="296" cy="32.4568" r="8" fill="#FFDCA8"/>
<circle cx="320" cy="8.45679" r="8" fill="#FFDCA8"/>
<circle cx="320" cy="32.4568" r="8" fill="#A8B1FF"/>
<circle cx="344" cy="8.45679" r="8" fill="#A8B1FF"/>
<circle cx="344" cy="32.4568" r="8" fill="#FFDCA8"/>
<circle cx="368" cy="8.45679" r="8" fill="#FFDCA8"/>
<circle cx="368" cy="32.4568" r="8" fill="#A8B1FF"/>
<circle cx="8" cy="56.4601" r="8" fill="#A8B1FF"/>
<circle cx="8" cy="80.4601" r="8" fill="#FFDCA8"/>
<circle cx="32" cy="56.4601" r="8" fill="#FFDCA8"/>
<circle cx="32" cy="80.4601" r="8" fill="#A8B1FF"/>
<circle cx="56" cy="56.4601" r="8" fill="#A8B1FF"/>
<circle cx="56" cy="80.4601" r="8" fill="#FFDCA8"/>
<circle cx="80" cy="56.4601" r="8" fill="#FFDCA8"/>
<circle cx="80" cy="80.4601" r="8" fill="#A8B1FF"/>
<circle cx="200" cy="56.4601" r="8" fill="#A8B1FF"/>
<circle cx="200" cy="80.4601" r="8" fill="#FFDCA8"/>
<circle cx="224" cy="56.4601" r="8" fill="#FFDCA8"/>
<circle cx="224" cy="80.4601" r="8" fill="#A8B1FF"/>
<circle cx="248" cy="56.4601" r="8" fill="#A8B1FF"/>
<circle cx="248" cy="80.4601" r="8" fill="#FFDCA8"/>
<circle cx="272" cy="56.4601" r="8" fill="#FFDCA8"/>
<circle cx="272" cy="80.4601" r="8" fill="#A8B1FF"/>
<circle cx="104" cy="56.4601" r="8" fill="#A8B1FF"/>
<circle cx="104" cy="80.4601" r="8" fill="#FFDCA8"/>
<circle cx="128" cy="56.4601" r="8" fill="#FFDCA8"/>
<circle cx="128" cy="80.4601" r="8" fill="#A8B1FF"/>
<circle cx="152" cy="56.4601" r="8" fill="#A8B1FF"/>
<circle cx="152" cy="80.4601" r="8" fill="#FFDCA8"/>
<circle cx="176" cy="56.4601" r="8" fill="#FFDCA8"/>
<circle cx="176" cy="80.4601" r="8" fill="#A8B1FF"/>
<circle cx="296" cy="56.4601" r="8" fill="#A8B1FF"/>
<circle cx="296" cy="80.4601" r="8" fill="#FFDCA8"/>
<circle cx="320" cy="56.4601" r="8" fill="#FFDCA8"/>
<circle cx="320" cy="80.4601" r="8" fill="#A8B1FF"/>
<circle cx="344" cy="56.4601" r="8" fill="#A8B1FF"/>
<circle cx="344" cy="80.4601" r="8" fill="#FFDCA8"/>
<circle cx="368" cy="56.4601" r="8" fill="#FFDCA8"/>
<circle cx="368" cy="80.4601" r="8" fill="#A8B1FF"/>
</svg>
