<svg width="392" height="400" viewBox="0 0 392 400" fill="none" xmlns="http://www.w3.org/2000/svg">
<path d="M226.106 313.6C226.106 313.6 287.148 316.512 325.76 246.12C364.372 175.728 318.939 110.976 248.755 96.984C178.572 82.992 143.605 30.4559 81.0499 70.6719C18.4946 110.888 53.2571 325.064 226.106 313.6Z" fill="#2868C8"/>
<path opacity="0.4" d="M226.106 313.6C226.106 313.6 287.148 316.512 325.76 246.12C364.372 175.728 318.939 110.976 248.755 96.984C178.572 82.992 143.605 30.4559 81.0499 70.6719C18.4946 110.888 53.2571 325.064 226.106 313.6Z" fill="white"/>
<path d="M196.008 344.976C277.237 344.976 343.086 340.81 343.086 335.672C343.086 330.533 277.237 326.368 196.008 326.368C114.778 326.368 48.9292 330.533 48.9292 335.672C48.9292 340.81 114.778 344.976 196.008 344.976Z" fill="#2868C8"/>
<path opacity="0.7" d="M196.008 344.976C277.237 344.976 343.086 340.81 343.086 335.672C343.086 330.533 277.237 326.368 196.008 326.368C114.778 326.368 48.9292 330.533 48.9292 335.672C48.9292 340.81 114.778 344.976 196.008 344.976Z" fill="white"/>
<path d="M228.207 90.5919L227.783 94.2559L229.728 94.9599C229.756 96.2159 229.927 97.4642 230.237 98.6799L228.552 99.9279L229.971 103.328L232.017 102.936C232.654 104.009 233.412 105.002 234.275 105.896L233.42 107.848L236.321 110.056L237.889 108.696C238.967 109.302 240.112 109.775 241.299 110.104L241.519 112.224L245.102 112.664L245.8 110.672C247.03 110.643 248.254 110.469 249.445 110.152L250.676 111.864L254.016 110.4L253.647 108.32C254.696 107.669 255.667 106.896 256.54 106.016L258.453 106.888L260.617 103.928L259.276 102.328C259.872 101.231 260.335 100.066 260.656 98.8559L262.734 98.6319L263.165 94.9679L261.213 94.2559C261.189 93.0023 261.018 91.7561 260.703 90.5439L262.397 89.2879L260.97 85.8879L258.932 86.2719C258.291 85.2019 257.53 84.2112 256.666 83.3199L257.512 81.3759L254.588 79.1999L253.02 80.5679C251.947 79.9687 250.811 79.4963 249.633 79.1599L249.414 77.0399L245.823 76.6079L245.125 78.5919C243.897 78.6228 242.676 78.8001 241.488 79.1199L240.257 77.3999L236.925 78.8479L237.301 80.9279C236.257 81.5694 235.289 82.3318 234.416 83.1999L232.511 82.3359L230.339 85.2959L231.68 86.8959C231.086 87.9961 230.623 89.1643 230.3 90.3759L228.207 90.5919ZM236.54 93.5279C236.75 91.7264 237.479 90.029 238.635 88.6505C239.791 87.272 241.322 86.2744 243.033 85.784C244.745 85.2935 246.561 85.3323 248.251 85.8954C249.941 86.4585 251.429 87.5205 252.528 88.9472C253.626 90.3738 254.285 92.1008 254.421 93.9097C254.557 95.7186 254.163 97.5279 253.291 99.1087C252.419 100.69 251.107 101.971 249.52 102.79C247.934 103.61 246.145 103.93 244.38 103.712V103.712C242.019 103.42 239.867 102.183 238.397 100.274C236.927 98.3649 236.259 95.9387 236.54 93.5279Z" stroke="#263238" stroke-width="1.57112" stroke-linejoin="round"/>
<path d="M134.542 180.752L134.158 184.072L135.922 184.712C135.947 185.849 136.102 186.979 136.385 188.08L134.817 189.216L136.103 192.296L137.953 191.936C138.532 192.906 139.218 193.806 139.999 194.616L139.215 196.384L141.904 198.4L143.323 197.16C144.299 197.712 145.336 198.141 146.412 198.44L146.608 200.36L149.862 200.76L150.489 198.952C151.604 198.928 152.711 198.77 153.79 198.48L154.903 200.04L157.913 198.72L157.584 196.8C158.535 196.209 159.417 195.508 160.211 194.712L161.943 195.512L163.903 192.84L162.688 191.376C163.227 190.382 163.648 189.327 163.942 188.232L165.824 188.024L166.208 184.704L164.444 184.064C164.419 182.927 164.264 181.796 163.982 180.696L165.55 179.56L164.256 176.48L162.414 176.824C161.829 175.858 161.137 174.964 160.352 174.16L161.136 172.392L158.447 170.4L157.02 171.64C156.048 171.093 155.017 170.666 153.946 170.368L153.75 168.448L150.497 168.048L149.87 169.856C148.755 169.88 147.647 170.039 146.569 170.328L145.456 168.8L142.437 170.112L142.774 172C141.823 172.59 140.941 173.291 140.148 174.088L138.415 173.288L136.455 175.968L137.671 177.424C137.133 178.421 136.712 179.479 136.416 180.576L134.542 180.752ZM142.092 183.408C142.283 181.777 142.944 180.241 143.991 178.994C145.037 177.746 146.423 176.843 147.972 176.399C149.521 175.955 151.165 175.99 152.695 176.499C154.225 177.008 155.573 177.969 156.568 179.259C157.563 180.55 158.161 182.112 158.286 183.75C158.411 185.387 158.057 187.025 157.27 188.457C156.482 189.889 155.296 191.051 153.862 191.796C152.428 192.54 150.809 192.834 149.211 192.64V192.64C147.068 192.377 145.114 191.258 143.78 189.527C142.445 187.796 141.838 185.595 142.092 183.408V183.408Z" fill="#263238"/>
<path d="M300.334 262.2V254.672L296.218 253.72C295.87 251.182 295.228 248.696 294.306 246.312L297.442 243.36L293.741 236.8L289.696 238.104C288.147 236.09 286.373 234.267 284.411 232.672L285.689 228.504L279.284 224.736L276.422 227.88C274.094 226.921 271.662 226.247 269.178 225.872L268.238 221.632H260.86L259.919 225.84C257.432 226.193 254.994 226.848 252.659 227.792L249.766 224.592L243.377 228.352L244.623 232.48C242.65 234.058 240.864 235.865 239.3 237.864L235.223 236.576L231.538 243.088L234.627 246.024C233.688 248.398 233.028 250.876 232.66 253.408L228.504 254.376V261.904L232.62 262.864C232.974 265.398 233.616 267.882 234.533 270.264L231.397 273.224L235.09 279.76L239.128 278.488C240.68 280.496 242.459 282.312 244.427 283.896L243.165 288.064L249.578 291.832L252.44 288.632C254.755 289.593 257.173 290.269 259.645 290.648L260.586 294.888H267.971L268.904 290.688C271.393 290.323 273.832 289.663 276.172 288.72L279.065 291.92L285.47 288.152L284.223 284.032C286.198 282.457 287.985 280.649 289.547 278.648L293.623 279.936L297.316 273.392L294.219 270.464C295.158 268.087 295.821 265.606 296.195 263.072L300.334 262.2ZM287.579 258.312C287.579 262.986 286.221 267.555 283.676 271.441C281.131 275.328 277.514 278.357 273.282 280.145C269.05 281.934 264.394 282.402 259.901 281.49C255.409 280.578 251.282 278.327 248.043 275.022C244.804 271.717 242.599 267.507 241.705 262.922C240.811 258.338 241.27 253.587 243.023 249.269C244.776 244.95 247.744 241.26 251.553 238.663C255.361 236.066 259.839 234.68 264.419 234.68V234.68C270.562 234.68 276.452 237.17 280.796 241.602C285.139 246.034 287.579 252.044 287.579 258.312V258.312Z" fill="white"/>
<path d="M172.151 75.3201H153.146V79.7921H172.151V75.3201Z" fill="#2868C8"/>
<path d="M165.636 81.7839H153.146V86.2559H165.636V81.7839Z" fill="#2868C8"/>
<path d="M160.336 88.248H153.146V92.72H160.336V88.248Z" fill="#2868C8"/>
<path opacity="0.2" d="M172.151 75.3201H153.146V79.7921H172.151V75.3201Z" fill="black"/>
<path opacity="0.2" d="M165.636 81.7839H153.146V86.2559H165.636V81.7839Z" fill="black"/>
<path opacity="0.2" d="M160.336 88.248H153.146V92.72H160.336V88.248Z" fill="black"/>
<path d="M126.592 124.856H120.148V138.328H126.592V124.856Z" fill="#2868C8"/>
<path d="M135.899 129.488H129.454V138.336H135.899V129.488Z" fill="#2868C8"/>
<path d="M145.213 133.24H138.768V138.336H145.213V133.24Z" fill="#2868C8"/>
<path opacity="0.2" d="M126.592 124.856H120.148V138.328H126.592V124.856Z" fill="black"/>
<path opacity="0.2" d="M135.899 129.488H129.454V138.336H135.899V129.488Z" fill="black"/>
<path opacity="0.2" d="M145.213 133.24H138.768V138.336H145.213V133.24Z" fill="black"/>
<path d="M196.737 148.528H118.705C117.634 148.53 116.573 148.317 115.583 147.9C114.593 147.483 113.693 146.871 112.935 146.099C112.177 145.327 111.576 144.41 111.166 143.401C110.755 142.391 110.544 141.309 110.544 140.216V74.48C110.548 72.2768 111.408 70.1651 112.934 68.6072C114.461 67.0493 116.531 66.1722 118.69 66.168H196.721C197.792 66.1669 198.852 66.3811 199.842 66.7982C200.832 67.2154 201.731 67.8273 202.489 68.5992C203.247 69.371 203.848 70.2876 204.259 71.2967C204.67 72.3057 204.882 73.3874 204.883 74.48V140.216C204.883 142.42 204.024 144.535 202.497 146.093C200.969 147.652 198.897 148.528 196.737 148.528ZM118.705 66.928C116.735 66.9322 114.847 67.7326 113.455 69.1539C112.062 70.5753 111.277 72.5019 111.273 74.512V140.248C111.277 142.258 112.062 144.185 113.455 145.606C114.847 147.027 116.735 147.828 118.705 147.832H196.737C198.707 147.828 200.595 147.027 201.988 145.606C203.381 144.185 204.165 142.258 204.169 140.248V74.48C204.165 72.4699 203.381 70.5433 201.988 69.1219C200.595 67.7006 198.707 66.9002 196.737 66.896L118.705 66.928Z" fill="#263238"/>
<path d="M195.733 125.224H167.909V125.952H195.733V125.224Z" fill="#263238"/>
<path d="M195.733 128.272H167.909V129H195.733V128.272Z" fill="#263238"/>
<path d="M195.733 131.312H167.909V132.04H195.733V131.312Z" fill="#263238"/>
<path d="M195.733 134.352H167.909V135.08H195.733V134.352Z" fill="#263238"/>
<path d="M195.733 137.392H167.909V138.12H195.733V137.392Z" fill="#263238"/>
<path d="M147.118 75.624H119.293V76.352H147.118V75.624Z" fill="#263238"/>
<path d="M147.118 78.6641H119.293V79.3921H147.118V78.6641Z" fill="#263238"/>
<path d="M147.118 81.7039H119.293V82.4319H147.118V81.7039Z" fill="#263238"/>
<path d="M147.118 84.7439H119.293V85.4719H147.118V84.7439Z" fill="#263238"/>
<path d="M147.118 87.7839H119.293V88.5119H147.118V87.7839Z" fill="#263238"/>
<path d="M190.238 100.184L195.224 102.856L194.651 88.5039L182.758 96.1839L187.744 98.8479L183.989 106.136C183.327 106.135 182.684 106.36 182.162 106.776L175.538 103.648V103.608C175.566 102.792 175.279 101.998 174.738 101.397C174.197 100.796 173.445 100.437 172.647 100.397C171.848 100.357 171.066 100.64 170.47 101.184C169.874 101.728 169.511 102.489 169.462 103.304C169.454 103.405 169.454 103.507 169.462 103.608C169.466 104.052 169.559 104.49 169.736 104.896L161.112 114.496C160.835 114.407 160.547 114.361 160.257 114.36C160.107 114.36 159.957 114.376 159.811 114.408L147.392 98.3199C147.676 97.576 147.667 96.7491 147.367 96.0117C147.068 95.2742 146.501 94.6833 145.785 94.3623C145.069 94.0413 144.258 94.0149 143.524 94.2888C142.789 94.5626 142.186 95.1154 141.841 95.8319C141.67 96.2189 141.581 96.6391 141.583 97.0639C141.592 97.3818 141.645 97.6968 141.739 97.9999L127.588 112.8C127.025 112.593 126.415 112.56 125.834 112.706C125.253 112.852 124.727 113.17 124.322 113.62C123.918 114.07 123.653 114.632 123.561 115.235C123.468 115.839 123.553 116.456 123.804 117.011C124.055 117.565 124.461 118.031 124.971 118.351C125.481 118.67 126.072 118.829 126.67 118.806C127.268 118.784 127.847 118.581 128.332 118.224C128.818 117.867 129.189 117.372 129.399 116.8V116.8C129.518 116.458 129.579 116.098 129.579 115.736C129.58 115.482 129.546 115.228 129.478 114.984L143.786 99.9999C144.066 100.095 144.36 100.144 144.656 100.144C144.843 100.145 145.029 100.126 145.212 100.088L157.56 116.088C157.173 116.818 157.085 117.675 157.316 118.471C157.548 119.267 158.08 119.936 158.795 120.332C159.511 120.728 160.351 120.817 161.131 120.581C161.911 120.345 162.567 119.802 162.954 119.072C163.173 118.666 163.299 118.215 163.323 117.752C163.331 117.648 163.331 117.544 163.323 117.44C163.318 117.116 163.265 116.795 163.166 116.488L171.994 106.68C172.162 106.712 172.333 106.728 172.503 106.728C173.107 106.728 173.696 106.544 174.197 106.2L180.939 109.4C180.952 109.811 181.044 110.215 181.211 110.589C181.378 110.963 181.617 111.299 181.912 111.579C182.208 111.858 182.555 112.074 182.934 112.214C183.312 112.355 183.715 112.417 184.117 112.398C184.519 112.378 184.914 112.277 185.278 112.1C185.641 111.923 185.967 111.674 186.235 111.367C186.503 111.061 186.709 110.703 186.84 110.314C186.972 109.926 187.026 109.514 187 109.104C186.97 108.529 186.783 107.975 186.459 107.504L190.238 100.184Z" fill="#263238"/>
<path d="M196.917 157.016C195.69 157.018 194.513 157.517 193.646 158.404C192.779 159.29 192.292 160.491 192.292 161.744V202.712C192.292 203.964 192.779 205.164 193.646 206.05C194.514 206.935 195.69 207.432 196.917 207.432H245.525C246.753 207.432 247.93 206.935 248.799 206.05C249.667 205.165 250.156 203.965 250.159 202.712V161.72C250.156 160.467 249.667 159.267 248.799 158.382C247.93 157.497 246.753 157 245.525 157L196.917 157.016Z" stroke="#263238" stroke-linejoin="round"/>
<path d="M199.818 162.6H196.125V163.104H199.818V162.6Z" fill="#263238"/>
<path d="M199.818 166.712H196.125V167.216H199.818V166.712Z" fill="#263238"/>
<path d="M199.818 170.824H196.125V171.328H199.818V170.824Z" fill="#263238"/>
<path d="M199.818 174.944H196.125V175.448H199.818V174.944Z" fill="#263238"/>
<path d="M199.677 166.712H195.984V167.216H199.677V166.712Z" fill="#263238"/>
<path d="M199.818 179.056H196.125V179.56H199.818V179.056Z" fill="#263238"/>
<path d="M224.036 201.312C227.539 201.386 230.986 200.397 233.939 198.471C236.892 196.546 239.218 193.769 240.624 190.493C242.03 187.218 242.452 183.59 241.836 180.07C241.221 176.549 239.595 173.294 237.166 170.717C234.737 168.139 231.613 166.355 228.189 165.59C224.766 164.825 221.197 165.114 217.935 166.42C214.672 167.725 211.862 169.989 209.861 172.925C207.86 175.861 206.758 179.337 206.694 182.912C206.605 187.698 208.382 192.323 211.634 195.773C214.885 199.223 219.346 201.215 224.036 201.312V201.312ZM224.655 170.48C227.136 170.531 229.546 171.332 231.58 172.781C233.615 174.23 235.183 176.262 236.086 178.62C236.988 180.978 237.186 183.556 236.652 186.029C236.119 188.501 234.879 190.757 233.089 192.51C231.3 194.264 229.041 195.436 226.598 195.88C224.155 196.323 221.638 196.017 219.366 195.001C217.094 193.985 215.168 192.303 213.832 190.17C212.496 188.037 211.809 185.547 211.86 183.016C211.928 179.622 213.314 176.395 215.714 174.044C218.113 171.694 221.329 170.411 224.655 170.48Z" fill="#2868C8"/>
<path opacity="0.2" d="M224.036 201.312C227.539 201.386 230.986 200.397 233.939 198.471C236.892 196.546 239.218 193.769 240.624 190.493C242.03 187.218 242.452 183.59 241.836 180.07C241.221 176.549 239.595 173.294 237.166 170.717C234.737 168.139 231.613 166.355 228.189 165.59C224.766 164.825 221.197 165.114 217.935 166.42C214.672 167.725 211.862 169.989 209.861 172.925C207.86 175.861 206.758 179.337 206.694 182.912C206.605 187.698 208.382 192.323 211.634 195.773C214.885 199.223 219.346 201.215 224.036 201.312V201.312ZM224.655 170.48C227.136 170.531 229.546 171.332 231.58 172.781C233.615 174.23 235.183 176.262 236.086 178.62C236.988 180.978 237.186 183.556 236.652 186.029C236.119 188.501 234.879 190.757 233.089 192.51C231.3 194.264 229.041 195.436 226.598 195.88C224.155 196.323 221.638 196.017 219.366 195.001C217.094 193.985 215.168 192.303 213.832 190.17C212.496 188.037 211.809 185.547 211.86 183.016C211.928 179.622 213.314 176.395 215.714 174.044C218.113 171.694 221.329 170.411 224.655 170.48Z" fill="black"/>
<path d="M211.68 196.176C213.347 197.892 215.33 199.257 217.514 200.191C219.698 201.126 222.041 201.612 224.409 201.622C226.777 201.633 229.125 201.167 231.316 200.252C233.508 199.336 235.502 197.99 237.184 196.288C237.245 196.217 237.28 196.126 237.28 196.032C237.28 195.937 237.245 195.846 237.184 195.776L233.507 192C233.474 191.965 233.435 191.937 233.392 191.918C233.349 191.899 233.303 191.889 233.256 191.888C233.161 191.894 233.07 191.93 232.997 191.992C231.841 193.175 230.46 194.106 228.94 194.726C227.419 195.346 225.791 195.644 224.154 195.6H223.283C220.622 195.448 218.084 194.405 216.063 192.632C215.882 192.464 215.694 192.296 215.522 192.12C213.456 190.016 212.186 187.235 211.935 184.267C211.684 181.3 212.468 178.338 214.15 175.904C214.166 175.882 214.179 175.857 214.189 175.832C214.267 175.72 214.354 175.624 214.448 175.512C215.653 173.954 217.209 172.714 218.983 171.898C220.757 171.082 222.697 170.714 224.64 170.824C224.686 170.825 224.732 170.817 224.775 170.8C224.819 170.782 224.858 170.757 224.891 170.724C224.925 170.691 224.952 170.652 224.97 170.609C224.989 170.566 224.999 170.519 225 170.472L225.102 165.168C225.104 165.072 225.069 164.978 225.005 164.908C224.941 164.838 224.852 164.796 224.757 164.792V164.792C221.168 164.73 217.643 165.763 214.633 167.758C211.623 169.753 209.265 172.619 207.86 175.99C206.456 179.36 206.069 183.082 206.749 186.678C207.43 190.274 209.147 193.581 211.68 196.176V196.176Z" fill="#263238"/>
<path d="M224.765 164.8C229.652 164.805 234.336 166.791 237.789 170.319C241.242 173.848 243.18 178.632 243.177 183.618C243.175 188.604 241.232 193.386 237.775 196.911C234.319 200.436 229.632 202.416 224.745 202.416C219.859 202.416 215.172 200.436 211.716 196.911C208.259 193.386 206.316 188.604 206.313 183.618C206.311 178.632 208.249 173.848 211.702 170.319C215.154 166.791 219.839 164.805 224.726 164.8H224.765ZM224.044 200.936C227.476 201.008 230.853 200.04 233.746 198.154C236.639 196.267 238.92 193.548 240.298 190.339C241.677 187.13 242.092 183.577 241.491 180.127C240.89 176.678 239.299 173.488 236.922 170.961C234.544 168.434 231.485 166.683 228.131 165.93C224.778 165.177 221.282 165.455 218.084 166.73C214.886 168.005 212.13 170.22 210.166 173.093C208.201 175.966 207.115 179.369 207.047 182.872C206.954 187.568 208.692 192.109 211.88 195.498C215.067 198.886 219.442 200.845 224.044 200.944V200.936ZM224.663 170.104C227.209 170.157 229.682 170.979 231.77 172.466C233.858 173.953 235.466 176.038 236.393 178.458C237.319 180.879 237.521 183.525 236.974 186.062C236.426 188.599 235.154 190.914 233.317 192.713C231.48 194.513 229.161 195.716 226.655 196.171C224.148 196.625 221.565 196.311 219.233 195.268C216.901 194.225 214.925 192.5 213.554 190.31C212.183 188.121 211.479 185.566 211.531 182.968C211.601 179.485 213.024 176.174 215.486 173.761C217.949 171.349 221.25 170.033 224.663 170.104V170.104ZM224.153 195.632C226.558 195.682 228.923 195.004 230.95 193.682C232.976 192.36 234.573 190.455 235.539 188.207C236.504 185.96 236.795 183.47 236.374 181.054C235.953 178.638 234.839 176.403 233.173 174.633C231.507 172.863 229.364 171.636 227.015 171.109C224.667 170.581 222.217 170.776 219.977 171.669C217.737 172.562 215.806 174.113 214.43 176.126C213.054 178.138 212.293 180.522 212.244 182.976V182.976C212.181 186.264 213.4 189.444 215.633 191.815C217.866 194.187 220.931 195.557 224.153 195.624V195.632Z" fill="#263238"/>
<path d="M133.021 222.504V271.032" stroke="#263238" stroke-width="0.879169" stroke-linecap="round" stroke-linejoin="round"/>
<path d="M140.665 240.816H136.627V268.6H140.665V240.816Z" fill="#263238"/>
<path d="M146.436 252.152H142.398V268.592H146.436V252.152Z" fill="#2868C8"/>
<path d="M153.217 231.832H149.18V268.6H153.217V231.832Z" fill="white" stroke="#263238" stroke-width="0.879169" stroke-linejoin="round"/>
<path d="M164.475 226.528H160.438V268.592H164.475V226.528Z" fill="#263238"/>
<path d="M170.253 258.192H166.216V268.6H170.253V258.192Z" fill="#2868C8"/>
<path d="M177.035 243.76H172.998V268.6H177.035V243.76Z" fill="white" stroke="#263238" stroke-width="0.879169" stroke-linejoin="round"/>
<path d="M193.483 247.56H189.446V268.592H193.483V247.56Z" fill="#263238"/>
<path d="M199.261 231.24H195.224V268.592H199.261V231.24Z" fill="#2868C8"/>
<path d="M206.043 239.488H202.005V268.592H206.043V239.488Z" fill="white" stroke="#263238" stroke-width="0.879169" stroke-linejoin="round"/>
<path d="M128.686 262.168H130.943" stroke="#263238" stroke-width="0.879169" stroke-linecap="round" stroke-linejoin="round"/>
<path d="M128.686 256.176H130.943" stroke="#263238" stroke-width="0.879169" stroke-linecap="round" stroke-linejoin="round"/>
<path d="M128.686 250.192H130.943" stroke="#263238" stroke-width="0.879169" stroke-linecap="round" stroke-linejoin="round"/>
<path d="M128.686 244.2H130.943" stroke="#263238" stroke-width="0.879169" stroke-linecap="round" stroke-linejoin="round"/>
<path d="M128.686 238.208H130.943" stroke="#263238" stroke-width="0.879169" stroke-linecap="round" stroke-linejoin="round"/>
<path d="M128.686 232.216H130.943" stroke="#263238" stroke-width="0.879169" stroke-linecap="round" stroke-linejoin="round"/>
<path d="M128.686 226.224H130.943" stroke="#263238" stroke-width="0.879169" stroke-linecap="round" stroke-linejoin="round"/>
<path d="M130.348 268.6H208.873" stroke="#263238" stroke-width="0.879169" stroke-linecap="round" stroke-linejoin="round"/>
<path opacity="0.3" d="M146.436 252.152H142.398V268.592H146.436V252.152Z" fill="black"/>
<path opacity="0.3" d="M170.253 258.192H166.216V268.6H170.253V258.192Z" fill="black"/>
<path opacity="0.3" d="M199.261 231.24H195.224V268.592H199.261V231.24Z" fill="black"/>
<path d="M125.479 215.768C124.126 215.77 122.829 216.319 121.873 217.296C120.916 218.272 120.378 219.595 120.375 220.976V268.584C120.378 269.965 120.916 271.29 121.872 272.267C122.829 273.245 124.126 273.796 125.479 273.8H212.072C213.427 273.796 214.724 273.245 215.682 272.268C216.64 271.29 217.18 269.966 217.184 268.584V220.96C217.182 219.577 216.643 218.252 215.684 217.274C214.726 216.296 213.427 215.746 212.072 215.744L125.479 215.768Z" stroke="#263238" stroke-linejoin="round"/>
<path d="M56.9578 322.192C56.9578 322.192 58.7689 334.528 54.3863 335.792C50.0037 337.056 46.9618 335.392 46.413 333.544C45.8642 331.696 49.745 318.496 49.745 318.496L56.9578 322.192Z" fill="white"/>
<path d="M133.186 324.92L152.237 329.528C152.237 329.528 153.68 330.328 153.523 331.648C153.366 332.968 144.672 336.352 142.233 336.776C139.795 337.2 125.722 339.072 123.723 337.32C121.724 335.568 125.95 321.6 125.95 321.6L133.186 324.92Z" fill="white"/>
<path d="M98.6899 99.9359C98.6899 99.9359 101.371 104.064 101.41 106.152C101.45 108.24 101.199 110.624 102.453 111.856C103.708 113.088 104.672 114.432 104.154 115.056C103.637 115.68 102.641 116.896 102.641 116.896C102.641 116.896 103.935 123.928 102.257 125.2C100.579 126.472 95.5382 125.2 95.5382 125.2V129.744C95.5382 129.744 88.3725 127.344 83.4254 127.792L82.5474 118.056C82.5474 118.056 93.296 96.9679 98.6899 99.9359Z" fill="white"/>
<path d="M142.766 128.704C142.766 128.704 142.124 123.712 144.507 120.704C144.507 120.704 141.653 120.208 141.998 119.152C142.343 118.096 146.702 119.48 146.702 119.48L145.526 117.08C145.526 117.08 141.41 115.688 141.92 114.384C142.429 113.08 148.466 116.288 148.466 116.288C148.466 116.288 144.883 113.232 145.385 111.96C145.887 110.688 149.532 110.712 151.477 117.304L152.464 116.048C152.464 116.048 152.817 108.544 153.829 108.136C153.829 108.136 155.397 109.016 155.397 113.328C155.397 113.328 156.965 115.256 155.969 116.888C154.973 118.52 152.629 122.192 150.638 123.568C148.646 124.944 148.654 130.312 148.654 130.312L142.766 128.704Z" fill="white"/>
<path d="M79.6704 87.6718L80.572 86.4398C80.572 86.4398 90.6621 81.8478 90.4112 80.4158C90.1603 78.9838 84.445 80.9598 83.3552 80.1998C83.3552 80.1998 84.3979 66.6478 83.3552 66.2078C82.3125 65.7678 81.1522 72.5678 81.1522 72.5678C81.1522 72.5678 79.6861 65.5918 78.5571 65.7918C77.4282 65.9918 77.8986 72.9918 77.8986 72.9918C77.8986 72.9918 75.7426 68.5038 74.9037 68.9198C74.0648 69.3358 75.3192 74.8078 75.3192 74.8078C75.3192 74.8078 73.7512 72.9278 73.124 73.4958C73.3306 76.3224 74.0904 79.078 75.3584 81.5998L73.1789 85.3598L79.6704 87.6718Z" fill="white"/>
<path d="M141.677 128.736L148.631 129.728C148.631 129.728 143.543 173.728 142.045 179.16C140.548 184.592 139.2 188.496 134.088 188.76C128.976 189.024 110.764 173.4 110.764 173.4L109.917 195L111.101 203.96C111.101 203.96 88.8275 215.904 66.1778 205.512L66.6874 195L58.5259 146.92L52.105 124.088L72.8261 84L80.3368 88L67.0872 124.488L70.7955 136.672L74.9429 134.976L79.5293 129.008C79.5293 129.008 87.3066 124.888 97.1458 130.608L98.7138 135.616C98.7138 135.616 110.254 136.504 129.737 164.064L141.677 128.736Z" fill="#2868C8"/>
<path opacity="0.2" d="M91.9634 128.736L92.8415 134.896C92.8415 134.896 99.3173 139.28 101.92 140.8C101.92 140.8 108.286 181.824 103.574 189.896L98.6117 197.824C98.6117 197.824 103.684 197.824 106.02 194.2C106.02 194.2 103.112 204.104 95.5698 206.768C95.5698 206.768 107.149 205.536 111.132 203.968L109.948 195.008L111.853 145.048C111.853 145.048 113.649 141.704 98.7215 135.712L96.5184 130.312L91.9634 128.736Z" fill="black"/>
<path d="M98.6903 100.496C98.6903 100.496 101.121 104.128 101.411 106.152C101.701 108.176 100.838 110.408 102.453 111.856C104.068 113.304 104.805 114.256 104.155 115.056C103.504 115.856 102.642 116.896 102.642 116.896C102.642 116.896 103.3 123.752 102.257 125.2C101.215 126.648 95.5386 125.2 95.5386 125.2V129.744" stroke="#263238" stroke-linecap="round" stroke-linejoin="round"/>
<path d="M95.5385 116.592C95.5385 116.592 93.2649 110.6 91.5636 112.048C89.8623 113.496 91.3755 121.416 95.5385 119.68" stroke="#263238" stroke-linecap="round" stroke-linejoin="round"/>
<path d="M94.919 115.2C94.919 115.2 97.6238 114.976 95.9147 108.504C94.2055 102.032 97.906 102.904 101.881 101.064C105.856 99.2238 106.804 95.8478 105.95 93.8238C105.095 91.7998 103.676 90.7278 98.6587 91.6958C98.6587 91.6958 93.1707 85.2238 87.8708 92.3758C87.8708 92.3758 75.9383 92.1838 72.7239 97.9758C69.5095 103.768 73.7667 118.552 80.0151 123.48C86.2636 128.408 92.371 124.464 93.6411 119.832C93.6411 119.832 89.3839 117.488 91.5635 112.08C91.5635 112.048 93.547 111.328 94.919 115.2Z" fill="#263238"/>
<path d="M57.9062 143.272C57.9062 143.272 86.781 121.904 111.947 143.272L109.917 194.968L111.101 203.928C111.101 203.928 89.8229 214.096 66.1775 205.48L66.687 194.968L57.9062 143.272Z" stroke="#263238" stroke-linecap="round" stroke-linejoin="round"/>
<path d="M74.5586 135.504L79.5292 129.04C79.5292 129.04 89.2743 125.6 97.1456 130.64L98.7136 135.648" stroke="#263238" stroke-linecap="round" stroke-linejoin="round"/>
<path d="M111.948 143.272L137.091 172.776" stroke="#263238" stroke-linecap="round" stroke-linejoin="round"/>
<path d="M110.787 172.8C110.787 172.8 127.447 188.616 134.088 188.8C140.728 188.984 141.834 180.8 141.834 180.8L148.631 129.76L141.677 128.768L129.713 164.152" stroke="#263238" stroke-linecap="round" stroke-linejoin="round"/>
<path d="M148.513 129.6C148.513 129.6 149.384 123.832 151.649 122.52C153.915 121.208 156.604 116.12 155.742 114.656C154.88 113.192 152.245 117.952 149.87 118.864C147.494 119.776 145.566 124.256 145.236 126.2" stroke="#263238" stroke-linecap="round" stroke-linejoin="round"/>
<path d="M155.013 114.448C155.013 114.448 155.013 107.784 153.813 108.096C152.614 108.408 152.449 116.848 152.449 116.848" stroke="#263238" stroke-linecap="round" stroke-linejoin="round"/>
<path d="M151.571 117.704C151.571 117.704 150.787 113.968 148.631 112.144C146.475 110.32 145.126 111.304 145.37 111.92C145.613 112.536 149.29 117.52 149.203 119.216" stroke="#263238" stroke-linecap="round" stroke-linejoin="round"/>
<path d="M147.839 115.856C147.839 115.856 141.92 113.088 141.904 114.744C141.889 116.4 145.511 117.04 145.511 117.04L146.687 119.44C146.687 119.44 141.701 117.84 141.983 119.112C142.265 120.384 144.492 120.664 144.492 120.664C144.492 120.664 142.069 123.112 142.751 128.664" stroke="#263238" stroke-linecap="round" stroke-linejoin="round"/>
<path d="M107.675 204.528L109.188 215.344C109.188 215.344 123.12 257.992 125.236 266.328C127.353 274.664 128.568 293.528 129.156 302.176C129.744 310.824 134.644 325.376 134.644 325.376C134.644 325.376 134.041 331.248 123.747 330.32C123.747 330.32 119.505 313.016 114.966 302.816C110.427 292.616 109.76 277.144 109.76 277.144L87.6515 235.736C87.6515 235.736 83.1278 259.848 80.0859 268.8C76.9499 278.032 55.5702 329.256 57.0677 325.664C57.0677 325.664 54.0414 327.52 47.6597 322.88C47.6597 322.88 52.199 307.432 53.4064 299.088C54.6137 290.744 60.9798 271.584 60.9798 271.584C60.9798 271.584 62.4929 235.432 64.8998 224.304C64.8998 224.304 63.3318 212.048 66.6795 203.392C79.9484 207.814 94.1903 208.208 107.675 204.528V204.528Z" fill="#263238"/>
<path d="M75.5386 228.472L85.464 231.416L86.9066 235.008" stroke="white" stroke-linecap="round" stroke-linejoin="round"/>
<path d="M123.966 329.056C123.966 329.056 122.626 335.912 123.723 337.32C124.304 338.056 126.028 337.92 126.859 337.936C128.772 337.976 130.693 337.848 132.606 337.72C136.432 337.464 140.352 337.504 144.045 336.296C147.156 335.342 150.127 333.967 152.88 332.208C154.386 331.184 152.88 329.528 152.88 329.528L134.652 325.352" stroke="#263238" stroke-linecap="round" stroke-linejoin="round"/>
<path d="M123.872 334.904C123.872 334.904 144.358 338.336 152.88 329.528" stroke="#263238" stroke-linecap="round" stroke-linejoin="round"/>
<path d="M48.4513 322.192C48.4513 322.192 46.0993 330.424 46.4442 333.016C46.7892 335.608 49.3372 336.216 52.3164 336.144C55.2956 336.072 56.5186 334.712 56.9577 332.656C57.3967 330.6 56.9577 323.952 56.9577 323.952" stroke="#263238" stroke-linecap="round" stroke-linejoin="round"/>
<path d="M46.4131 331.76L56.9579 332.656" stroke="#263238" stroke-linecap="round" stroke-linejoin="round"/>
<path d="M73.9393 84.2559C74.8331 82.5919 75.3583 81.5759 75.3583 81.5759C75.3583 81.5759 72.4497 74.3999 73.1788 73.5199C73.9079 72.6399 75.5935 75.1199 75.5935 75.1199C75.5935 75.1199 73.8687 69.4159 74.9585 68.9279C76.0483 68.4399 77.9926 73.7279 77.9926 73.7279C77.9926 73.7279 77.483 66.0879 78.6119 65.7279C79.7409 65.3679 81.0972 72.9919 81.0972 72.9919C81.0972 72.9919 82.5555 66.2079 83.4492 66.1439C84.343 66.0799 83.4492 80.1359 83.4492 80.1359C85.2524 81.0399 90.5523 78.8319 90.5052 80.6159C90.4582 82.3999 80.3132 86.5039 80.3132 86.5039C80.1357 86.7389 79.9808 86.9907 79.8507 87.2559" stroke="#263238" stroke-linecap="round" stroke-linejoin="round"/>
<path d="M57.9066 143.272L52.105 124.088L72.8261 84.0239L80.3368 88.0319L67.0872 124.52L70.7955 136.704" stroke="#263238" stroke-linecap="round" stroke-linejoin="round"/>
<path d="M58.5805 121.056C58.5805 121.056 66.0128 120.992 67.0869 124.52C63.8311 124.335 60.606 125.246 57.9062 127.112" stroke="#263238" stroke-linecap="round" stroke-linejoin="round"/>
<path d="M83.1357 128.208V122.648" stroke="#263238" stroke-linecap="round" stroke-linejoin="round"/>
<path opacity="0.2" d="M111.822 158.744L113.68 171.36C113.68 171.36 115.201 163.128 116.15 163.128C117.098 163.128 116.15 172.776 116.15 172.776C116.15 172.776 131.736 187.176 138.478 187.256C138.478 187.256 134.731 189.944 130.975 187.944C127.22 185.944 110.756 172.744 110.756 172.744L111.822 158.744Z" fill="black"/>
<path opacity="0.2" d="M79.0037 87.3198L64.7506 122.648C64.7506 122.648 59.7879 122.568 57.9062 127.112L65.5267 125.72L68.0904 137.72L70.7952 136.672L67.0869 124.488L80.3365 87.9998L79.0037 87.3198Z" fill="black"/>
<path d="M275.427 149.448L269.814 137.216L247.752 152.088L265.956 185L280.155 176.776L275.427 149.448Z" fill="white"/>
<path d="M293.608 255.248C293.608 255.248 297.175 265.352 297.7 270.272C298.226 275.192 296.619 295.912 296.963 301.624C297.308 307.336 300.335 324.384 300.335 324.384C300.335 324.384 285.494 335.392 280.782 331.848C280.782 331.848 291.24 323.208 292.299 319.768L288.912 296.416L285.548 268.8C285.548 268.8 284.694 263.032 283.502 260.064C282.311 257.096 282.491 250.8 282.491 250.8L293.608 255.248Z" fill="white"/>
<path d="M293.294 254.352C293.294 254.352 297.152 264.992 298.053 272.632C298.955 280.272 296.242 297.6 297.136 305.944C298.03 314.288 298.947 318.904 300.531 323.296L299.747 336.184H297.716L296.932 328.872C296.932 328.872 293.749 327.52 291.82 332.2C289.892 336.88 282.765 337.496 279.386 334.784C279.386 334.784 279.386 332.688 281.926 330.84C284.467 328.992 291.099 323.216 292.307 319.768C292.307 319.768 288.684 295.768 287.838 287.992C286.991 280.216 285.666 266.08 283.973 261.52C282.279 256.96 282.287 250.44 282.287 250.44" stroke="#263238" stroke-linecap="round" stroke-linejoin="round"/>
<path d="M299.755 320.88C299.755 320.88 289.806 331.92 281.456 331.848" stroke="#263238" stroke-linecap="round" stroke-linejoin="round"/>
<path d="M280.782 331.848C282.162 332.004 283.559 331.826 284.859 331.328C287.109 330.528 295.207 326.528 299.19 321.48L300.413 322.896L299.77 335.888L297.724 336.184L296.94 328.872C296.94 328.872 294.322 327.648 292.636 330.656C290.95 333.664 289.735 335.728 286.787 336.392C283.839 337.056 279.394 334.792 279.394 334.792C279.394 334.792 278.618 333.6 280.782 331.848Z" fill="#263238"/>
<path d="M300.546 255.592C301.481 259.1 302.617 262.548 303.949 265.92C305.729 270.088 321.103 312.24 321.103 312.24C321.103 312.24 322.271 335.056 328.817 334.984C335.364 334.912 328.559 319.04 328.559 319.04L324.576 310.344C324.576 310.344 323.055 284.8 321.173 275.408L313.161 253.384L300.546 255.592Z" fill="white"/>
<path d="M313.247 254.12C313.247 254.12 319.825 269.392 321.182 275.408C322.538 281.424 323.902 308.488 324.584 310.344C325.266 312.2 336.148 331.856 329.57 335.792C322.993 339.728 321.44 313.12 321.44 313.12C321.44 313.12 306.254 270.08 303.981 265.92C301.707 261.76 299.222 249.72 299.222 249.72L313.247 254.12Z" stroke="#263238" stroke-linecap="round" stroke-linejoin="round"/>
<path d="M330.848 325.704C330.848 325.704 330.394 331.032 328.669 331.784C326.944 332.536 323.134 326.528 323.134 326.528" stroke="#263238" stroke-linecap="round" stroke-linejoin="round"/>
<path d="M323.149 327.448C323.149 327.448 325.501 336.536 328.637 336.152C331.773 335.768 332.338 330.72 330.856 326.824C330.856 326.824 330.331 330.824 328.677 331.784C327.007 331.808 323.149 327.448 323.149 327.448Z" fill="#263238"/>
<path d="M295.388 174.68C295.388 174.68 303.314 185.72 308.81 203.48C314.306 221.24 313.741 255.256 313.741 255.256C313.741 255.256 293.287 261.968 273.459 253.44L277.089 176.8C277.089 176.8 289.845 177.04 295.388 174.68Z" fill="#263238"/>
<path d="M285.149 94.616C285.149 94.616 278.987 100.504 278.265 104.36C277.67 107.059 276.716 109.662 275.427 112.096C276.09 113.119 277.061 113.895 278.195 114.304C278.195 114.304 278.595 122.2 280.845 122.808L286.223 121.368L286.795 124.752L294.51 121.76V117.2L300.39 113.28L298.297 103.032L288.732 98.472L285.149 94.616Z" fill="white"/>
<path d="M277.05 176.184L276.368 165.112C276.368 165.112 271.35 155.512 272.942 152.024C274.698 148.192 285.251 134 285.251 134L284.216 126.256L299.002 119.792L299.708 126.256L297.92 127.608L299.904 131.944C299.904 131.944 300.029 130.656 303.463 137.192C306.897 143.728 319.833 166.984 320.852 171.448C321.871 175.912 300.735 191.64 293.6 195.352C293.6 195.352 292.777 193.552 284.302 200.152C282.146 199.768 279.167 197.792 278.532 196.568C277.897 195.344 280.97 192.432 280.97 192.432C280.97 192.432 282.82 188.864 286.089 191.72H289.57L309.492 172.8L299.394 157.72L295.388 174.656C295.388 174.656 282.428 178.672 277.05 176.184Z" fill="white"/>
<path d="M284.216 126.256L285.274 134.168L299.708 126.256L299.002 119.792L284.216 126.256Z" stroke="#263238" stroke-linecap="round" stroke-linejoin="round"/>
<path d="M285.274 134.168C285.274 134.168 272.142 150.56 272.495 153.792C272.848 157.024 276.368 165.112 276.368 165.112L277.089 176.792C277.089 176.792 287.712 177.088 295.388 174.68L299.394 157.744" stroke="#263238" stroke-linecap="round" stroke-linejoin="round"/>
<path d="M309.492 172.8L289.147 141.504C289.147 141.504 287.148 134.304 291.961 131.736C296.775 129.168 300.962 132.424 302.459 134.136C303.957 135.848 320.107 167.6 320.86 171.416C321.612 175.232 304.553 190.496 294.682 194.616C294.682 194.616 290.19 197.368 290.19 191.72L309.492 172.8Z" stroke="#263238" stroke-linecap="round" stroke-linejoin="round"/>
<path d="M299.708 131.944L297.803 127.304" stroke="#263238" stroke-linecap="round" stroke-linejoin="round"/>
<path d="M290.19 191.752H286.098C286.098 191.752 282.907 188.84 281.394 191.752C279.88 194.664 277.967 195.24 278.54 196.6C279.112 197.96 282.389 200.672 284.31 200.184C286.231 199.696 291.648 195.2 291.648 195.2" stroke="#263238" stroke-linecap="round" stroke-linejoin="round"/>
<path d="M283.675 96.688C283.675 96.688 278.869 100.976 278.336 103.352C277.803 105.728 278.03 109.752 275.427 112.096C275.427 112.096 275.561 114.016 278.195 114.304C278.195 114.304 279.543 121.88 280.845 122.808C282.146 123.736 290.112 119.544 293.232 117.816C294.028 117.259 294.607 116.435 294.87 115.488" stroke="#263238" stroke-linecap="round" stroke-linejoin="round"/>
<path d="M279.943 116.616C281.416 116.363 282.745 115.562 283.675 114.368" stroke="#263238" stroke-linecap="round" stroke-linejoin="round"/>
<path d="M279.943 105.656C279.943 105.656 281.84 104.528 282.883 106.4" stroke="#263238" stroke-linecap="round" stroke-linejoin="round"/>
<path d="M281.245 109.68C281.245 110.328 281.064 110.856 280.774 110.872C280.484 110.888 280.218 110.376 280.186 109.736C280.155 109.096 280.367 108.552 280.657 108.536C280.947 108.52 281.213 109.032 281.245 109.68Z" fill="#263238"/>
<path d="M286.223 121.368L286.858 125.104" stroke="#263238" stroke-linecap="round" stroke-linejoin="round"/>
<path d="M292.385 109.184C292.385 109.184 293.561 106.856 294.87 108.216C296.18 109.576 298.665 115.864 291.962 114.368C291.962 114.368 291.515 118.208 294.87 119.168C298.226 120.128 304.6 114.832 304.811 105.8C305.023 96.7681 296.478 90.6721 291.962 92.4161C291.962 92.4161 285.415 81.9441 278.924 86.4081C272.432 90.8721 276.807 97.7441 275.427 99.2961C274.047 100.848 271.099 99.3921 271.005 103.56C270.911 107.728 277.74 107.304 277.74 107.304L278.563 102.712L284.216 96.6881C284.216 96.6881 282.883 101.04 285.149 104.824C287.195 108.232 292.385 109.184 292.385 109.184Z" fill="#263238"/>
<path d="M304.811 105.8C304.811 105.8 307.947 106.52 307.602 110.848C307.257 115.176 300.178 125.816 300.711 131.944L318.986 166.696C318.986 166.696 327.21 165.096 326.826 156.456C326.442 147.816 316.407 140.536 318.343 134.168C320.28 127.8 327.884 111.584 317.112 102.288C306.34 92.9921 289.547 107.24 289.547 107.24L297.771 104.536L304.811 105.8Z" fill="#263238"/>
<path d="M274.722 148.736L269.814 137.216L247.752 152.088L265.956 185L276.995 178.8" stroke="#263238" stroke-linecap="round" stroke-linejoin="round"/>
<path d="M254.62 168.368C254.62 168.368 253.428 165.856 255.02 164.472C256.611 163.088 262.076 158.984 262.076 159.992C262.112 160.237 262.097 160.487 262.032 160.725C261.967 160.963 261.854 161.185 261.699 161.376C260.131 163.52 256.376 166.976 256.619 167.256C256.619 167.256 263.471 162.616 264.13 163.056C264.294 163.168 264.2 163.768 263.628 164.352C261.75 166.058 259.768 167.639 257.693 169.088C257.693 169.088 264.922 166.232 265.855 166.688C266.121 166.816 266.066 167.232 265.227 167.752C263.129 168.916 260.969 169.963 258.759 170.888L260.57 173.976C260.57 173.976 257.152 174.584 254.62 168.368Z" fill="white" stroke="#263238" stroke-linecap="round" stroke-linejoin="round"/>
<path d="M294.008 116.616L294.51 121.76" stroke="#263238" stroke-linejoin="round"/>
</svg>
