<svg width="185" height="80" viewBox="0 0 185 80" fill="none" xmlns="http://www.w3.org/2000/svg">
<path fill-rule="evenodd" clip-rule="evenodd" d="M5.03829 0.00275692C5.86064 0.0410158 6.47501 0.46747 6.41051 0.95527C4.98571 11.731 5.19329 22.558 5.40141 33.4139C5.50534 38.8351 5.60942 44.2635 5.5104 49.6963C5.42709 54.2673 4.83593 58.8034 4.24952 63.3031C4.2263 63.4813 4.20308 63.6594 4.17991 63.8374C3.57015 68.5227 2.98715 73.1708 2.98715 77.8431C2.98715 77.9764 3.02141 78.0466 3.0415 78.0764C3.05849 78.1017 3.07172 78.1087 3.08044 78.1132C3.11633 78.1319 3.27385 78.1919 3.71774 78.217C4.1473 78.2413 4.67443 78.2239 5.28334 78.185C5.48619 78.1721 5.72749 78.1542 5.97692 78.1358C6.36318 78.1073 6.76892 78.0773 7.08146 78.0617C21.0477 77.3641 34.9861 76.5544 48.9359 75.7441C56.811 75.2866 64.6898 74.829 72.5792 74.3911C75.2904 74.2406 78.0033 74.0891 80.7177 73.9375C112.405 72.1676 144.306 70.3857 176.204 70.1511C176.697 70.1475 177.288 70.1829 177.809 70.2141L177.908 70.22C178.496 70.255 179.056 70.2868 179.58 70.2899C180.114 70.293 180.497 70.2642 180.747 70.2141C180.959 70.1717 180.979 70.1358 180.981 70.1327C181.35 69.695 182.247 69.5174 182.985 69.7363C183.723 69.9551 184.022 70.4873 183.653 70.9249C183.207 71.4541 182.446 71.7443 181.701 71.8931C180.988 72.0359 180.218 72.0656 179.55 72.0617C178.872 72.0577 178.181 72.0171 177.609 71.983C176.993 71.9462 176.557 71.9206 176.241 71.9229C144.47 72.1565 112.688 73.9316 80.978 75.7027C78.2707 75.8539 75.5638 76.0051 72.8575 76.1553C64.9961 76.5916 57.1296 77.0485 49.2593 77.5057C35.2934 78.3169 21.3153 79.1289 7.33213 79.8274C7.04604 79.8417 6.77652 79.862 6.4664 79.8854C6.21543 79.9044 5.93787 79.9253 5.6034 79.9467C4.94759 79.9887 4.17541 80.0228 3.43466 79.9809C2.70824 79.9399 1.82445 79.8164 1.1116 79.4458C0.342326 79.0459 0 78.4805 0 77.8431C0 73.0928 0.592705 68.3798 1.20162 63.701C1.22395 63.5295 1.24629 63.358 1.26863 63.1866C1.85699 58.6714 2.44121 54.1879 2.52343 49.6771C2.62089 44.3295 2.51812 38.944 2.41505 33.5428C2.20695 22.6378 1.99763 11.6686 3.4325 0.816723C3.497 0.328923 4.21594 -0.0355018 5.03829 0.00275692Z" fill="black"/>
<path fill-rule="evenodd" clip-rule="evenodd" d="M171.405 65.0309C171.913 64.6455 172.851 64.5774 173.501 64.8788C174.692 65.4311 175.902 65.9331 177.148 66.4495C177.79 66.7156 178.441 66.9855 179.103 67.2681C181.007 68.0805 182.919 68.9649 184.604 70.0476C185.163 70.4071 185.126 70.9676 184.52 71.2995C183.913 71.6314 182.968 71.609 182.409 71.2494C180.93 70.2988 179.211 69.4968 177.358 68.7064C176.767 68.454 176.152 68.1988 175.526 67.9394C174.24 67.4058 172.912 66.8548 171.661 66.2745C171.011 65.9731 170.896 65.4163 171.405 65.0309Z" fill="black"/>
<path fill-rule="evenodd" clip-rule="evenodd" d="M171.394 64.6907C172.218 64.6907 172.887 65.0873 172.887 65.5766V74.0297C172.887 74.0505 172.887 74.0744 172.887 74.1009C172.887 74.1395 172.886 74.1837 172.886 74.232C173.598 73.9268 174.492 73.5395 175.462 73.1196C175.925 72.9186 176.406 72.7102 176.893 72.4998C178.163 71.9505 179.443 71.3998 180.482 70.9636C181.462 70.5527 182.369 70.1822 182.804 70.0548C183.544 69.8382 184.439 70.0183 184.805 70.457C185.17 70.8958 184.866 71.427 184.126 71.6436C184.128 71.6432 184.113 71.6476 184.077 71.6601C184.042 71.6719 183.997 71.6879 183.941 71.7088C183.827 71.7507 183.683 71.8063 183.509 71.8754C183.161 72.0136 182.718 72.1959 182.207 72.4102C181.187 72.8383 179.923 73.3824 178.653 73.9315C178.204 74.1256 177.751 74.3221 177.305 74.5152C175.288 75.3895 173.435 76.1927 172.911 76.3824C172.551 76.5131 171.984 76.621 171.359 76.4857C170.804 76.3657 170.511 76.117 170.377 75.9756C170.116 75.7003 170.025 75.3682 169.981 75.16C169.892 74.7412 169.897 74.2631 169.9 74.0807C169.9 74.0596 169.9 74.0424 169.9 74.0297V65.5766C169.9 65.0873 170.569 64.6907 171.394 64.6907Z" fill="black"/>
</svg>
