<svg width="126" height="53" viewBox="0 0 126 53" fill="none" xmlns="http://www.w3.org/2000/svg">
<path d="M1.39648 1.19531H6.12305V2.88477H4.7168V14.3203H6.12305V16H1.39648V14.3203H2.80273V2.88477H1.39648V1.19531ZM15.1562 14.3203H16.582V9.70117C16.582 8.92643 16.3835 8.34049 15.9863 7.94336C15.5957 7.53971 15.0326 7.33789 14.2969 7.33789C13.8737 7.33789 13.4473 7.4388 13.0176 7.64062C12.5879 7.84245 12.181 8.0931 11.7969 8.39258V14.3203H13.2227V16H8.49609V14.3203H9.90234V7.5625H8.49609V5.88281H11.7188V7.07422H11.7383C11.9531 6.88542 12.181 6.70638 12.4219 6.53711C12.6693 6.36784 12.9264 6.22135 13.1934 6.09766C13.4603 5.97396 13.737 5.8763 14.0234 5.80469C14.3164 5.73307 14.6224 5.69727 14.9414 5.69727C15.4818 5.69727 15.9701 5.77214 16.4062 5.92188C16.8424 6.07161 17.2135 6.29948 17.5195 6.60547C17.8255 6.91146 18.0599 7.30534 18.2227 7.78711C18.3919 8.26237 18.4766 8.82552 18.4766 9.47656V14.3203H19.8828V16H15.1562V14.3203ZM21.3574 1.19531H26.1621V2.88477H24.7559L27.5391 7.64062L30.5176 2.88477H28.9746V1.19531H33.7793V2.88477H32.5195L28.3594 9.19336V14.3203H29.8828V16H25.0781V14.3203H26.4355V9.14453L22.5098 2.88477H21.3574V1.19531ZM34.9219 10.9414C34.9284 10.1406 35.0553 9.41146 35.3027 8.75391C35.5566 8.09635 35.9082 7.5332 36.3574 7.06445C36.8066 6.58919 37.3405 6.22461 37.959 5.9707C38.5775 5.7168 39.2578 5.58984 40 5.58984C40.7487 5.58984 41.4323 5.7168 42.0508 5.9707C42.6758 6.22461 43.2096 6.58594 43.6523 7.05469C44.0951 7.51693 44.4401 8.07682 44.6875 8.73438C44.9349 9.39193 45.0586 10.1211 45.0586 10.9219C45.0586 11.7096 44.9349 12.4355 44.6875 13.0996C44.4401 13.7572 44.0951 14.3236 43.6523 14.7988C43.2096 15.2741 42.6758 15.6452 42.0508 15.9121C41.4323 16.1725 40.7487 16.3027 40 16.3027C39.2383 16.3027 38.5482 16.1725 37.9297 15.9121C37.3112 15.6517 36.7806 15.2871 36.3379 14.8184C35.8952 14.3431 35.5501 13.7767 35.3027 13.1191C35.0553 12.4616 34.9284 11.7357 34.9219 10.9414ZM36.8457 10.9414C36.8457 11.5208 36.9271 12.0449 37.0898 12.5137C37.2591 12.9824 37.487 13.3828 37.7734 13.7148C38.0664 14.0404 38.4017 14.2943 38.7793 14.4766C39.1634 14.6523 39.5703 14.7402 40 14.7402C40.4492 14.7402 40.8659 14.6523 41.25 14.4766C41.6406 14.3008 41.9792 14.0501 42.2656 13.7246C42.5521 13.3926 42.7767 12.9922 42.9395 12.5234C43.1022 12.0547 43.1836 11.5273 43.1836 10.9414C43.1836 10.3294 43.1022 9.78581 42.9395 9.31055C42.7767 8.83529 42.5521 8.43815 42.2656 8.11914C41.9857 7.80013 41.6504 7.55924 41.2598 7.39648C40.8691 7.23372 40.4492 7.15234 40 7.15234C39.5703 7.15234 39.1634 7.23372 38.7793 7.39648C38.4017 7.55924 38.0664 7.80013 37.7734 8.11914C37.487 8.43815 37.2591 8.83529 37.0898 9.31055C36.9271 9.78581 36.8457 10.3294 36.8457 10.9414ZM53.125 5.88281H56.3867V14.3203H57.5098V16H54.5605V15.0625C54.1048 15.4141 53.6068 15.6875 53.0664 15.8828C52.5326 16.0781 51.9596 16.1758 51.3477 16.1758C50.8398 16.1758 50.3776 16.1042 49.9609 15.9609C49.5508 15.8112 49.1992 15.5833 48.9062 15.2773C48.6198 14.9648 48.3984 14.571 48.2422 14.0957C48.0859 13.6204 48.0078 13.054 48.0078 12.3965V7.5625H46.6406V5.88281H49.9023V12.1816C49.9023 12.9564 50.0814 13.5423 50.4395 13.9395C50.7975 14.3366 51.3118 14.5352 51.9824 14.5352C52.3796 14.5352 52.7962 14.4635 53.2324 14.3203C53.6751 14.1771 54.0918 13.9785 54.4824 13.7246V7.5625H53.125V5.88281ZM67.4902 8.02148H65.6348V7.39648C65.4199 7.39648 65.1986 7.4388 64.9707 7.52344C64.7493 7.60156 64.541 7.72526 64.3457 7.89453C64.1504 8.05729 63.9779 8.26888 63.8281 8.5293C63.6849 8.7832 63.5807 9.08594 63.5156 9.4375V14.3203H65.2344V16H60.2148V14.3203H61.6113L61.6211 7.5625H60.2148V5.88281H63.4473V7.2793C63.5645 7.07096 63.6947 6.87891 63.8379 6.70312C63.9876 6.52083 64.1504 6.36458 64.3262 6.23438C64.5085 6.09766 64.707 5.99349 64.9219 5.92188C65.1432 5.84375 65.3809 5.80469 65.6348 5.80469C65.9733 5.80469 66.2923 5.80469 66.5918 5.80469C66.8913 5.80469 67.1908 5.8112 67.4902 5.82422V8.02148ZM15.5859 42.9414C15.5924 42.1406 15.7194 41.4115 15.9668 40.7539C16.2207 40.0964 16.5723 39.5332 17.0215 39.0645C17.4707 38.5892 18.0046 38.2246 18.623 37.9707C19.2415 37.7168 19.9219 37.5898 20.6641 37.5898C21.4128 37.5898 22.0964 37.7168 22.7148 37.9707C23.3398 38.2246 23.8737 38.5859 24.3164 39.0547C24.7591 39.5169 25.1042 40.0768 25.3516 40.7344C25.599 41.3919 25.7227 42.1211 25.7227 42.9219C25.7227 43.7096 25.599 44.4355 25.3516 45.0996C25.1042 45.7572 24.7591 46.3236 24.3164 46.7988C23.8737 47.2741 23.3398 47.6452 22.7148 47.9121C22.0964 48.1725 21.4128 48.3027 20.6641 48.3027C19.9023 48.3027 19.2122 48.1725 18.5938 47.9121C17.9753 47.6517 17.4447 47.2871 17.002 46.8184C16.5592 46.3431 16.2142 45.7767 15.9668 45.1191C15.7194 44.4616 15.5924 43.7357 15.5859 42.9414ZM17.5098 42.9414C17.5098 43.5208 17.5911 44.0449 17.7539 44.5137C17.9232 44.9824 18.151 45.3828 18.4375 45.7148C18.7305 46.0404 19.0658 46.2943 19.4434 46.4766C19.8275 46.6523 20.2344 46.7402 20.6641 46.7402C21.1133 46.7402 21.5299 46.6523 21.9141 46.4766C22.3047 46.3008 22.6432 46.0501 22.9297 45.7246C23.2161 45.3926 23.4408 44.9922 23.6035 44.5234C23.7663 44.0547 23.8477 43.5273 23.8477 42.9414C23.8477 42.3294 23.7663 41.7858 23.6035 41.3105C23.4408 40.8353 23.2161 40.4382 22.9297 40.1191C22.6497 39.8001 22.3145 39.5592 21.9238 39.3965C21.5332 39.2337 21.1133 39.1523 20.6641 39.1523C20.2344 39.1523 19.8275 39.2337 19.4434 39.3965C19.0658 39.5592 18.7305 39.8001 18.4375 40.1191C18.151 40.4382 17.9232 40.8353 17.7539 41.3105C17.5911 41.7858 17.5098 42.3294 17.5098 42.9414ZM34.3555 46.3203H35.7812V41.7012C35.7812 40.9264 35.5827 40.3405 35.1855 39.9434C34.7949 39.5397 34.2318 39.3379 33.4961 39.3379C33.0729 39.3379 32.6465 39.4388 32.2168 39.6406C31.7871 39.8424 31.3802 40.0931 30.9961 40.3926V46.3203H32.4219V48H27.6953V46.3203H29.1016V39.5625H27.6953V37.8828H30.918V39.0742H30.9375C31.1523 38.8854 31.3802 38.7064 31.6211 38.5371C31.8685 38.3678 32.1257 38.2214 32.3926 38.0977C32.6595 37.974 32.9362 37.8763 33.2227 37.8047C33.5156 37.7331 33.8216 37.6973 34.1406 37.6973C34.681 37.6973 35.1693 37.7721 35.6055 37.9219C36.0417 38.0716 36.4128 38.2995 36.7188 38.6055C37.0247 38.9115 37.2591 39.3053 37.4219 39.7871C37.5911 40.2624 37.6758 40.8255 37.6758 41.4766V46.3203H39.082V48H34.3555V46.3203ZM46.875 40.5977C46.875 40.3242 46.8099 40.0931 46.6797 39.9043C46.556 39.709 46.3932 39.5527 46.1914 39.4355C45.9896 39.3118 45.765 39.224 45.5176 39.1719C45.2702 39.1133 45.0293 39.084 44.7949 39.084C44.5345 39.084 44.2936 39.1133 44.0723 39.1719C43.8574 39.2305 43.6719 39.3151 43.5156 39.4258C43.3594 39.5365 43.2357 39.6732 43.1445 39.8359C43.0599 39.9922 43.0176 40.168 43.0176 40.3633C43.0176 40.7018 43.1185 40.972 43.3203 41.1738C43.5286 41.3691 43.8737 41.5514 44.3555 41.7207L46.2988 42.4043C47.1322 42.6842 47.7409 43.0651 48.125 43.5469C48.5091 44.0286 48.7012 44.6048 48.7012 45.2754C48.7012 45.7246 48.61 46.138 48.4277 46.5156C48.252 46.8867 47.998 47.2057 47.666 47.4727C47.3405 47.7331 46.9466 47.9349 46.4844 48.0781C46.0221 48.2279 45.5078 48.3027 44.9414 48.3027C44.1536 48.3027 43.5124 48.1758 43.0176 47.9219C42.5228 47.668 42.1419 47.3327 41.875 46.916H40.8594V45.2363H42.8809C42.8809 45.5163 42.9395 45.7572 43.0566 45.959C43.1803 46.1543 43.3398 46.3138 43.5352 46.4375C43.737 46.5612 43.9616 46.6523 44.209 46.7109C44.4629 46.7695 44.7201 46.7988 44.9805 46.7988C45.2344 46.7988 45.4785 46.7695 45.7129 46.7109C45.9473 46.6458 46.1523 46.5547 46.3281 46.4375C46.5104 46.3138 46.6536 46.1673 46.7578 45.998C46.862 45.8288 46.9141 45.6367 46.9141 45.4219C46.9141 45.0964 46.8066 44.8197 46.5918 44.5918C46.3835 44.3639 46.0254 44.1589 45.5176 43.9766L43.584 43.2539C42.7962 42.974 42.2103 42.6191 41.8262 42.1895C41.4486 41.7533 41.2598 41.2096 41.2598 40.5586C41.2598 40.1289 41.3379 39.7318 41.4941 39.3672C41.6569 39.0026 41.888 38.6901 42.1875 38.4297C42.4935 38.1628 42.8646 37.9544 43.3008 37.8047C43.737 37.6549 44.235 37.5801 44.7949 37.5801C45.5176 37.5801 46.123 37.681 46.6113 37.8828C47.0996 38.0846 47.5391 38.4297 47.9297 38.918H48.877V40.5977H46.875ZM56.8359 37.8828H60.0977V46.3203H61.2207V48H58.2715V47.0625C57.8158 47.4141 57.3177 47.6875 56.7773 47.8828C56.2435 48.0781 55.6706 48.1758 55.0586 48.1758C54.5508 48.1758 54.0885 48.1042 53.6719 47.9609C53.2617 47.8112 52.9102 47.5833 52.6172 47.2773C52.3307 46.9648 52.1094 46.571 51.9531 46.0957C51.7969 45.6204 51.7188 45.054 51.7188 44.3965V39.5625H50.3516V37.8828H53.6133V44.1816C53.6133 44.9564 53.7923 45.5423 54.1504 45.9395C54.5085 46.3366 55.0228 46.5352 55.6934 46.5352C56.0905 46.5352 56.5072 46.4635 56.9434 46.3203C57.3861 46.1771 57.8027 45.9785 58.1934 45.7246V39.5625H56.8359V37.8828ZM63.8477 32.8047H67.1289V46.3203H68.6523V48H63.8477V46.3203H65.3125V34.4844H63.8477V32.8047ZM73.3594 37.8828H75.7324V39.3574H73.3398L73.3105 45.1973C73.3105 45.5944 73.3561 45.9167 73.4473 46.1641C73.5384 46.4115 73.6849 46.584 73.8867 46.6816C74.0885 46.7728 74.3164 46.8184 74.5703 46.8184C74.8438 46.8184 75.0846 46.7956 75.293 46.75C75.5013 46.6979 75.7292 46.6133 75.9766 46.4961L76.3965 47.7168C76.084 47.8796 75.7552 48.0065 75.4102 48.0977C75.0651 48.1953 74.6582 48.2441 74.1895 48.2441C73.7467 48.2441 73.3594 48.1888 73.0273 48.0781C72.7018 47.974 72.4251 47.7949 72.1973 47.541C71.9759 47.2871 71.8099 46.9486 71.6992 46.5254C71.5885 46.0957 71.5332 45.5618 71.5332 44.9238L71.5625 39.3574H69.9512V37.8828H71.582V35.4609L73.3594 34.6211V37.8828ZM77.793 37.8828H81.0938V46.3203H82.6172V48H77.8125V46.3203H79.2578V39.5625H77.793V37.8828ZM78.916 34.2988C78.916 34.1296 78.9486 33.9701 79.0137 33.8203C79.0853 33.6641 79.1764 33.5306 79.2871 33.4199C79.4043 33.3027 79.541 33.2116 79.6973 33.1465C79.8535 33.0749 80.0195 33.0391 80.1953 33.0391C80.3646 33.0391 80.5241 33.0749 80.6738 33.1465C80.8301 33.2116 80.9635 33.3027 81.0742 33.4199C81.1914 33.5306 81.2826 33.6641 81.3477 33.8203C81.4193 33.9701 81.4551 34.1296 81.4551 34.2988C81.4551 34.4746 81.4193 34.6406 81.3477 34.7969C81.2826 34.9531 81.1914 35.0931 81.0742 35.2168C80.9635 35.334 80.8301 35.4284 80.6738 35.5C80.5241 35.5651 80.3646 35.5977 80.1953 35.5977C80.0195 35.5977 79.8535 35.5651 79.6973 35.5C79.541 35.4284 79.4043 35.334 79.2871 35.2168C79.1764 35.0931 79.0853 34.9531 79.0137 34.7969C78.9486 34.6406 78.916 34.4746 78.916 34.2988ZM90.957 46.3203H92.3828V41.7012C92.3828 40.9264 92.1842 40.3405 91.7871 39.9434C91.3965 39.5397 90.8333 39.3379 90.0977 39.3379C89.6745 39.3379 89.248 39.4388 88.8184 39.6406C88.3887 39.8424 87.9818 40.0931 87.5977 40.3926V46.3203H89.0234V48H84.2969V46.3203H85.7031V39.5625H84.2969V37.8828H87.5195V39.0742H87.5391C87.7539 38.8854 87.9818 38.7064 88.2227 38.5371C88.4701 38.3678 88.7272 38.2214 88.9941 38.0977C89.2611 37.974 89.5378 37.8763 89.8242 37.8047C90.1172 37.7331 90.4232 37.6973 90.7422 37.6973C91.2826 37.6973 91.7708 37.7721 92.207 37.9219C92.6432 38.0716 93.0143 38.2995 93.3203 38.6055C93.6263 38.9115 93.8607 39.3053 94.0234 39.7871C94.1927 40.2624 94.2773 40.8255 94.2773 41.4766V46.3203H95.6836V48H90.957V46.3203ZM105.039 47.1113C104.707 47.4629 104.32 47.7363 103.877 47.9316C103.441 48.127 102.943 48.2246 102.383 48.2246C101.699 48.2246 101.061 48.1074 100.469 47.873C99.8828 47.6322 99.3717 47.2839 98.9355 46.8281C98.5059 46.3659 98.1673 45.8027 97.9199 45.1387C97.679 44.4681 97.5586 43.7031 97.5586 42.8438C97.5586 42.0625 97.6758 41.3529 97.9102 40.7148C98.1445 40.0703 98.4766 39.5234 98.9062 39.0742C99.3359 38.6185 99.8535 38.2669 100.459 38.0195C101.064 37.7656 101.738 37.6387 102.48 37.6387C102.988 37.6387 103.444 37.6973 103.848 37.8145C104.258 37.9251 104.655 38.1204 105.039 38.4004V37.8828H106.855V47.5996C106.855 49.2012 106.475 50.4121 105.713 51.2324C104.958 52.0527 103.779 52.4629 102.178 52.4629C101.826 52.4629 101.458 52.4368 101.074 52.3848C100.69 52.3327 100.309 52.248 99.9316 52.1309C99.5605 52.0202 99.196 51.877 98.8379 51.7012C98.4863 51.5254 98.1608 51.3105 97.8613 51.0566L98.8379 49.582C99.0332 49.7513 99.2546 49.9076 99.502 50.0508C99.7559 50.194 100.026 50.3145 100.312 50.4121C100.599 50.5163 100.895 50.5977 101.201 50.6562C101.507 50.7148 101.813 50.7441 102.119 50.7441C102.62 50.7441 103.053 50.6921 103.418 50.5879C103.789 50.4837 104.092 50.2982 104.326 50.0312C104.567 49.7708 104.746 49.416 104.863 48.9668C104.98 48.5176 105.039 47.9479 105.039 47.2578V47.1113ZM102.617 46.6426C102.917 46.6426 103.19 46.6133 103.438 46.5547C103.685 46.4961 103.91 46.4212 104.111 46.3301C104.313 46.2324 104.489 46.1217 104.639 45.998C104.795 45.8743 104.928 45.7441 105.039 45.6074V40.0703C104.707 39.7773 104.323 39.5658 103.887 39.4355C103.457 39.3053 103.014 39.2402 102.559 39.2402C102.129 39.2402 101.725 39.3216 101.348 39.4844C100.97 39.6406 100.638 39.8717 100.352 40.1777C100.072 40.4837 99.8503 40.8581 99.6875 41.3008C99.5247 41.7435 99.4434 42.2513 99.4434 42.8242C99.4434 43.4492 99.5215 43.9993 99.6777 44.4746C99.834 44.9499 100.052 45.3503 100.332 45.6758C100.612 45.9948 100.947 46.2357 101.338 46.3984C101.729 46.5612 102.155 46.6426 102.617 46.6426Z" fill="black"/>
<path d="M77.5977 5.21875C77.5977 4.64583 77.4935 4.21615 77.2852 3.92969C77.0768 3.64323 76.8457 3.42513 76.5918 3.27539C76.3444 3.11914 76.071 3.00195 75.7715 2.92383C75.472 2.83919 75.1725 2.79688 74.873 2.79688C74.3783 2.79688 73.9453 2.85547 73.5742 2.97266C73.2031 3.08333 72.8939 3.23633 72.6465 3.43164C72.4056 3.62695 72.2233 3.85482 72.0996 4.11523C71.9759 4.37565 71.9141 4.64909 71.9141 4.93555C71.9141 5.36523 71.9889 5.71354 72.1387 5.98047C72.2949 6.24089 72.4902 6.45247 72.7246 6.61523C72.959 6.77148 73.2161 6.89518 73.4961 6.98633C73.7826 7.07747 74.056 7.16862 74.3164 7.25977L76.2891 7.9043C76.8815 8.0931 77.4023 8.30794 77.8516 8.54883C78.3073 8.78971 78.6882 9.07617 78.9941 9.4082C79.3001 9.73372 79.5312 10.1113 79.6875 10.541C79.8503 10.9707 79.9316 11.4688 79.9316 12.0352C79.9316 12.6471 79.8047 13.2135 79.5508 13.7344C79.3034 14.2552 78.9551 14.7077 78.5059 15.0918C78.0566 15.4759 77.5195 15.7786 76.8945 16C76.276 16.2148 75.5957 16.3223 74.8535 16.3223C74.0918 16.3223 73.4408 16.2344 72.9004 16.0586C72.36 15.8893 71.9043 15.6615 71.5332 15.375C71.1686 15.082 70.8757 14.75 70.6543 14.3789C70.4329 14.0078 70.2604 13.627 70.1367 13.2363H69.3945V11.5566H71.8555C71.8555 12.2793 71.9303 12.7904 72.0801 13.0898C72.2363 13.3893 72.4512 13.64 72.7246 13.8418C72.998 14.0371 73.3236 14.1868 73.7012 14.291C74.0788 14.3887 74.4954 14.4375 74.9512 14.4375C75.3939 14.4375 75.791 14.3854 76.1426 14.2812C76.5007 14.1771 76.8034 14.0273 77.0508 13.832C77.3047 13.6302 77.4967 13.3893 77.627 13.1094C77.7637 12.8229 77.832 12.5007 77.832 12.1426C77.832 11.7454 77.7474 11.4102 77.5781 11.1367C77.4154 10.8568 77.2038 10.6191 76.9434 10.4238C76.6829 10.2285 76.3965 10.069 76.084 9.94531C75.778 9.82161 75.4818 9.71419 75.1953 9.62305L73.0566 9.01758C72.5879 8.87435 72.1582 8.69206 71.7676 8.4707C71.3835 8.24935 71.0514 7.97917 70.7715 7.66016C70.498 7.34115 70.2865 6.97005 70.1367 6.54688C69.987 6.11719 69.9121 5.6224 69.9121 5.0625C69.9121 4.49609 70.0228 3.96549 70.2441 3.4707C70.4655 2.97591 70.791 2.54297 71.2207 2.17188C71.6504 1.80078 72.1745 1.51107 72.793 1.30273C73.418 1.08789 74.1309 0.980469 74.9316 0.980469C75.459 0.980469 75.944 1.04232 76.3867 1.16602C76.8359 1.28971 77.2396 1.46549 77.5977 1.69336C77.9622 1.91471 78.2812 2.1849 78.5547 2.50391C78.8346 2.81641 79.069 3.16146 79.2578 3.53906H79.9902V5.21875H77.5977ZM81.543 0.804688H84.7461V6.99609H84.8047C84.987 6.8138 85.1953 6.64453 85.4297 6.48828C85.6706 6.32552 85.9212 6.18555 86.1816 6.06836C86.4421 5.95117 86.7122 5.86003 86.9922 5.79492C87.2721 5.72982 87.5651 5.69727 87.8711 5.69727C88.4115 5.69727 88.8997 5.77214 89.3359 5.92188C89.7721 6.07161 90.1432 6.29948 90.4492 6.60547C90.7552 6.91146 90.9896 7.30534 91.1523 7.78711C91.3216 8.26237 91.4062 8.82552 91.4062 9.47656V14.3203H92.9297V16H88.125V14.3203H89.5117V9.70117C89.5117 8.92643 89.3132 8.34049 88.916 7.94336C88.5254 7.53971 87.9622 7.33789 87.2266 7.33789C86.8099 7.33789 86.3867 7.4388 85.957 7.64062C85.5273 7.83594 85.1237 8.08333 84.7461 8.38281V14.3203H86.2109V16H81.4062V14.3203H82.9297V2.48438H81.543V0.804688ZM94.4922 10.9414C94.4987 10.1406 94.6257 9.41146 94.873 8.75391C95.127 8.09635 95.4785 7.5332 95.9277 7.06445C96.377 6.58919 96.9108 6.22461 97.5293 5.9707C98.1478 5.7168 98.8281 5.58984 99.5703 5.58984C100.319 5.58984 101.003 5.7168 101.621 5.9707C102.246 6.22461 102.78 6.58594 103.223 7.05469C103.665 7.51693 104.01 8.07682 104.258 8.73438C104.505 9.39193 104.629 10.1211 104.629 10.9219C104.629 11.7096 104.505 12.4355 104.258 13.0996C104.01 13.7572 103.665 14.3236 103.223 14.7988C102.78 15.2741 102.246 15.6452 101.621 15.9121C101.003 16.1725 100.319 16.3027 99.5703 16.3027C98.8086 16.3027 98.1185 16.1725 97.5 15.9121C96.8815 15.6517 96.3509 15.2871 95.9082 14.8184C95.4655 14.3431 95.1204 13.7767 94.873 13.1191C94.6257 12.4616 94.4987 11.7357 94.4922 10.9414ZM96.416 10.9414C96.416 11.5208 96.4974 12.0449 96.6602 12.5137C96.8294 12.9824 97.0573 13.3828 97.3438 13.7148C97.6367 14.0404 97.972 14.2943 98.3496 14.4766C98.7337 14.6523 99.1406 14.7402 99.5703 14.7402C100.02 14.7402 100.436 14.6523 100.82 14.4766C101.211 14.3008 101.549 14.0501 101.836 13.7246C102.122 13.3926 102.347 12.9922 102.51 12.5234C102.673 12.0547 102.754 11.5273 102.754 10.9414C102.754 10.3294 102.673 9.78581 102.51 9.31055C102.347 8.83529 102.122 8.43815 101.836 8.11914C101.556 7.80013 101.221 7.55924 100.83 7.39648C100.439 7.23372 100.02 7.15234 99.5703 7.15234C99.1406 7.15234 98.7337 7.23372 98.3496 7.39648C97.972 7.55924 97.6367 7.80013 97.3438 8.11914C97.0573 8.43815 96.8294 8.83529 96.6602 9.31055C96.4974 9.78581 96.416 10.3294 96.416 10.9414ZM108.32 11.1758C108.32 11.4622 108.34 11.7259 108.379 11.9668C108.424 12.2012 108.486 12.4258 108.564 12.6406C108.805 13.2917 109.189 13.7832 109.717 14.1152C110.251 14.4408 110.853 14.6035 111.523 14.6035C112.051 14.6035 112.562 14.5319 113.057 14.3887C113.558 14.2389 114.082 14.0078 114.629 13.6953L115.361 14.9355C114.697 15.3913 114.03 15.7298 113.359 15.9512C112.689 16.1725 111.992 16.2832 111.27 16.2832C110.586 16.2832 109.951 16.1693 109.365 15.9414C108.786 15.7135 108.285 15.375 107.861 14.9258C107.445 14.4766 107.116 13.9167 106.875 13.2461C106.641 12.5755 106.523 11.7943 106.523 10.9023C106.523 10.1797 106.624 9.49935 106.826 8.86133C107.028 8.2168 107.327 7.6569 107.725 7.18164C108.128 6.69987 108.626 6.31901 109.219 6.03906C109.811 5.75911 110.501 5.61914 111.289 5.61914C112.051 5.61914 112.686 5.73633 113.193 5.9707C113.708 6.19857 114.124 6.50456 114.443 6.88867C114.769 7.26628 115.013 7.69922 115.176 8.1875C115.345 8.67578 115.462 9.17383 115.527 9.68164C115.56 9.92904 115.579 10.1797 115.586 10.4336C115.599 10.6875 115.605 10.9349 115.605 11.1758H108.32ZM111.162 7.14258C110.739 7.14258 110.368 7.20443 110.049 7.32812C109.736 7.44531 109.469 7.61784 109.248 7.8457C109.027 8.06706 108.848 8.34049 108.711 8.66602C108.581 8.99154 108.483 9.35612 108.418 9.75977H113.662C113.636 9.38216 113.574 9.03385 113.477 8.71484C113.385 8.39583 113.242 8.11914 113.047 7.88477C112.852 7.65039 112.601 7.4681 112.295 7.33789C111.989 7.20768 111.611 7.14258 111.162 7.14258ZM123.926 8.59766C123.926 8.32422 123.861 8.0931 123.73 7.9043C123.607 7.70898 123.444 7.55273 123.242 7.43555C123.04 7.31185 122.816 7.22396 122.568 7.17188C122.321 7.11328 122.08 7.08398 121.846 7.08398C121.585 7.08398 121.344 7.11328 121.123 7.17188C120.908 7.23047 120.723 7.3151 120.566 7.42578C120.41 7.53646 120.286 7.67318 120.195 7.83594C120.111 7.99219 120.068 8.16797 120.068 8.36328C120.068 8.70182 120.169 8.97201 120.371 9.17383C120.579 9.36914 120.924 9.55143 121.406 9.7207L123.35 10.4043C124.183 10.6842 124.792 11.0651 125.176 11.5469C125.56 12.0286 125.752 12.6048 125.752 13.2754C125.752 13.7246 125.661 14.138 125.479 14.5156C125.303 14.8867 125.049 15.2057 124.717 15.4727C124.391 15.7331 123.997 15.9349 123.535 16.0781C123.073 16.2279 122.559 16.3027 121.992 16.3027C121.204 16.3027 120.563 16.1758 120.068 15.9219C119.574 15.668 119.193 15.3327 118.926 14.916H117.91V13.2363H119.932C119.932 13.5163 119.99 13.7572 120.107 13.959C120.231 14.1543 120.391 14.3138 120.586 14.4375C120.788 14.5612 121.012 14.6523 121.26 14.7109C121.514 14.7695 121.771 14.7988 122.031 14.7988C122.285 14.7988 122.529 14.7695 122.764 14.7109C122.998 14.6458 123.203 14.5547 123.379 14.4375C123.561 14.3138 123.704 14.1673 123.809 13.998C123.913 13.8288 123.965 13.6367 123.965 13.4219C123.965 13.0964 123.857 12.8197 123.643 12.5918C123.434 12.3639 123.076 12.1589 122.568 11.9766L120.635 11.2539C119.847 10.974 119.261 10.6191 118.877 10.1895C118.499 9.75326 118.311 9.20964 118.311 8.55859C118.311 8.12891 118.389 7.73177 118.545 7.36719C118.708 7.0026 118.939 6.6901 119.238 6.42969C119.544 6.16276 119.915 5.95443 120.352 5.80469C120.788 5.65495 121.286 5.58008 121.846 5.58008C122.568 5.58008 123.174 5.68099 123.662 5.88281C124.15 6.08464 124.59 6.42969 124.98 6.91797H125.928V8.59766H123.926Z" fill="#C86328"/>
<path d="M11.9043 37.1016C11.4681 36.3594 10.8887 35.7767 10.166 35.3535C9.44987 34.9303 8.64909 34.7188 7.76367 34.7188C7.00846 34.7188 6.31836 34.8783 5.69336 35.1973C5.06836 35.5163 4.53125 35.946 4.08203 36.4863C3.63932 37.0202 3.29427 37.6419 3.04688 38.3516C2.79948 39.0547 2.67578 39.7969 2.67578 40.5781C2.67578 41.5026 2.8125 42.3229 3.08594 43.0391C3.35938 43.7487 3.71419 44.3411 4.15039 44.8164C4.5931 45.2852 5.11719 45.679 5.72266 45.998C6.32812 46.3105 7.00846 46.4668 7.76367 46.4668C8.79232 46.4668 9.6875 46.2194 10.4492 45.7246C11.2109 45.2233 11.862 44.403 12.4023 43.2637L14.1211 44.0742C13.8737 44.7773 13.4538 45.4577 12.8613 46.1152C12.2689 46.7663 11.5365 47.2936 10.6641 47.6973C9.79818 48.0944 8.83789 48.293 7.7832 48.293C6.77409 48.293 5.84635 48.1042 5 47.7266C4.15365 47.3424 3.39844 46.7988 2.73438 46.0957C2.07682 45.3926 1.57227 44.5592 1.2207 43.5957C0.875651 42.6322 0.703125 41.6263 0.703125 40.5781C0.703125 39.5234 0.875651 38.5273 1.2207 37.5898C1.57227 36.6523 2.06055 35.8385 2.68555 35.1484C3.31706 34.4518 4.06576 33.9049 4.93164 33.5078C5.80404 33.1042 6.74805 32.9023 7.76367 32.9023C8.66862 32.9023 9.44987 33.0326 10.1074 33.293C10.765 33.5469 11.3216 33.8529 11.7773 34.2109C12.2396 34.5625 12.6367 34.9466 12.9688 35.3633H14.0039V37.1016H11.9043Z" fill="#2868C8"/>
</svg>
